<svg width="57" height="12" viewBox="0 0 57 12" fill="none" xmlns="http://www.w3.org/2000/svg">
<path d="M8.50391 9.69434C8.16667 10.1774 7.69499 10.5397 7.08887 10.7812C6.4873 11.0182 5.78548 11.1367 4.9834 11.1367C4.1722 11.1367 3.45215 10.9476 2.82324 10.5693C2.19434 10.1865 1.70671 9.64421 1.36035 8.94238C1.01855 8.24056 0.843099 7.42708 0.833984 6.50195V5.63379C0.833984 4.13444 1.18262 2.97233 1.87988 2.14746C2.58171 1.32259 3.56608 0.910156 4.83301 0.910156C5.87207 0.910156 6.70833 1.17676 7.3418 1.70996C7.97526 2.23861 8.36263 2.99056 8.50391 3.96582H7.19141C6.94531 2.64876 6.16146 1.99023 4.83984 1.99023C3.96029 1.99023 3.29264 2.30013 2.83691 2.91992C2.38574 3.53516 2.15788 4.42839 2.15332 5.59961V6.41309C2.15332 7.52962 2.40853 8.41829 2.91895 9.0791C3.42936 9.73535 4.11979 10.0635 4.99023 10.0635C5.48242 10.0635 5.91309 10.0088 6.28223 9.89941C6.65137 9.79004 6.95671 9.60547 7.19824 9.3457V7.11035H4.89453V6.04395H8.50391V9.69434ZM14.3486 6.97363H12.0107V11H10.6914V1.04688H13.9863C15.1074 1.04688 15.9688 1.30208 16.5703 1.8125C17.1764 2.32292 17.4795 3.06576 17.4795 4.04102C17.4795 4.66081 17.3109 5.20085 16.9736 5.66113C16.641 6.12142 16.1761 6.46549 15.5791 6.69336L17.917 10.918V11H16.5088L14.3486 6.97363ZM12.0107 5.90039H14.0273C14.679 5.90039 15.1963 5.73177 15.5791 5.39453C15.9665 5.05729 16.1602 4.60612 16.1602 4.04102C16.1602 3.42578 15.9756 2.9541 15.6064 2.62598C15.2419 2.29785 14.7132 2.13151 14.0205 2.12695H12.0107V5.90039ZM26.332 1.04688V7.81445C26.3275 8.75326 26.0312 9.52116 25.4434 10.1182C24.86 10.7152 24.0671 11.0501 23.0645 11.123L22.7158 11.1367C21.6266 11.1367 20.7585 10.8428 20.1113 10.2549C19.4642 9.66699 19.1361 8.85807 19.127 7.82812V1.04688H20.4258V7.78711C20.4258 8.50716 20.624 9.06771 21.0205 9.46875C21.417 9.86523 21.9821 10.0635 22.7158 10.0635C23.4587 10.0635 24.026 9.86523 24.418 9.46875C24.8145 9.07227 25.0127 8.514 25.0127 7.79395V1.04688H26.332ZM29.7158 7.10352V11H28.4033V1.04688H32.0742C33.1634 1.04688 34.0156 1.32487 34.6309 1.88086C35.2507 2.43685 35.5605 3.17285 35.5605 4.08887C35.5605 5.05501 35.2575 5.80013 34.6514 6.32422C34.0498 6.84375 33.1862 7.10352 32.0605 7.10352H29.7158ZM29.7158 6.03027H32.0742C32.776 6.03027 33.3138 5.86621 33.6875 5.53809C34.0612 5.2054 34.248 4.72689 34.248 4.10254C34.248 3.51009 34.0612 3.03613 33.6875 2.68066C33.3138 2.3252 32.8011 2.14062 32.1494 2.12695H29.7158V6.03027ZM44.8916 6.34473C44.8916 7.31999 44.7275 8.1722 44.3994 8.90137C44.0713 9.62598 43.6064 10.1797 43.0049 10.5625C42.4033 10.9453 41.7015 11.1367 40.8994 11.1367C40.1156 11.1367 39.4206 10.9453 38.8145 10.5625C38.2083 10.1751 37.7367 9.62598 37.3994 8.91504C37.0667 8.19954 36.8958 7.3724 36.8867 6.43359V5.71582C36.8867 4.75879 37.0531 3.91341 37.3857 3.17969C37.7184 2.44596 38.1878 1.88542 38.7939 1.49805C39.4046 1.10612 40.1019 0.910156 40.8857 0.910156C41.6833 0.910156 42.3851 1.10384 42.9912 1.49121C43.6019 1.87402 44.0713 2.43229 44.3994 3.16602C44.7275 3.89518 44.8916 4.74512 44.8916 5.71582V6.34473ZM43.5859 5.70215C43.5859 4.52181 43.349 3.61719 42.875 2.98828C42.401 2.35482 41.738 2.03809 40.8857 2.03809C40.0563 2.03809 39.4023 2.35482 38.9238 2.98828C38.4499 3.61719 38.2061 4.49219 38.1924 5.61328V6.34473C38.1924 7.48861 38.4316 8.38867 38.9102 9.04492C39.3932 9.69661 40.0563 10.0225 40.8994 10.0225C41.7471 10.0225 42.4033 9.71484 42.8682 9.09961C43.333 8.47982 43.5723 7.59342 43.5859 6.44043V5.70215ZM55.959 6.39941H51.6455V9.92676H56.6562V11H50.333V1.04688H56.5879V2.12695H51.6455V5.32617H55.959V6.39941Z" fill="#444444" fill-opacity="0.6"/>
</svg>
