<svg width="1013" height="31" viewBox="0 0 1013 31" fill="none" xmlns="http://www.w3.org/2000/svg">
<path d="M227.438 21H220.745V19.8584L224.061 16.2422C224.539 15.709 224.879 15.2646 225.079 14.9092C225.284 14.5492 225.387 14.1891 225.387 13.8291C225.387 13.3551 225.252 12.9723 224.983 12.6807C224.719 12.389 224.361 12.2432 223.91 12.2432C223.372 12.2432 222.955 12.4072 222.659 12.7354C222.363 13.0635 222.215 13.5124 222.215 14.082H220.554C220.554 13.4759 220.69 12.9313 220.964 12.4482C221.242 11.9606 221.636 11.5824 222.146 11.3135C222.661 11.0446 223.254 10.9102 223.924 10.9102C224.89 10.9102 225.651 11.154 226.207 11.6416C226.768 12.1247 227.048 12.7946 227.048 13.6514C227.048 14.1481 226.907 14.6699 226.624 15.2168C226.346 15.7591 225.888 16.3766 225.25 17.0693L222.816 19.6738H227.438V21Z" fill="#979797"/>
<path d="M46.6406 19.708C46.2806 20.1774 45.7816 20.5329 45.1436 20.7744C44.5055 21.016 43.7809 21.1367 42.9697 21.1367C42.1357 21.1367 41.3975 20.9476 40.7549 20.5693C40.1123 20.1911 39.6156 19.651 39.2646 18.9492C38.9183 18.2428 38.7383 17.4202 38.7246 16.4814V15.7021C38.7246 14.1982 39.0846 13.0247 39.8047 12.1816C40.5247 11.334 41.5296 10.9102 42.8193 10.9102C43.9268 10.9102 44.8063 11.1836 45.458 11.7305C46.1097 12.2773 46.5016 13.0658 46.6338 14.0957H44.9385C44.7471 12.8971 44.0521 12.2979 42.8535 12.2979C42.0788 12.2979 41.4886 12.5781 41.083 13.1387C40.682 13.6947 40.4746 14.5127 40.4609 15.5928V16.3584C40.4609 17.4339 40.6865 18.2702 41.1377 18.8672C41.5934 19.4596 42.2246 19.7559 43.0312 19.7559C43.9154 19.7559 44.5443 19.5553 44.918 19.1543V17.2061H42.8672V15.8936H46.6406V19.708ZM52.2529 15.1211C52.0342 15.0846 51.8086 15.0664 51.5762 15.0664C50.8151 15.0664 50.3024 15.3581 50.0381 15.9414V21H48.377V13.6035H49.9629L50.0039 14.4307C50.4049 13.7881 50.9609 13.4668 51.6719 13.4668C51.9089 13.4668 52.1048 13.4987 52.2598 13.5625L52.2529 15.1211ZM57.7832 20.2754C57.2956 20.8496 56.6029 21.1367 55.7051 21.1367C54.903 21.1367 54.2946 20.902 53.8799 20.4326C53.4697 19.9632 53.2646 19.2842 53.2646 18.3955V13.6035H54.9258V18.375C54.9258 19.3138 55.3154 19.7832 56.0947 19.7832C56.9014 19.7832 57.446 19.4938 57.7285 18.915V13.6035H59.3896V21H57.8242L57.7832 20.2754ZM67.5586 17.377C67.5586 18.5208 67.2988 19.4346 66.7793 20.1182C66.2598 20.7972 65.5625 21.1367 64.6875 21.1367C63.8763 21.1367 63.2269 20.8701 62.7393 20.3369V23.8438H61.0781V13.6035H62.6094L62.6777 14.3555C63.1654 13.763 63.8285 13.4668 64.667 13.4668C65.5693 13.4668 66.2757 13.804 66.7861 14.4785C67.3011 15.1484 67.5586 16.0804 67.5586 17.2744V17.377ZM65.9043 17.2334C65.9043 16.4951 65.7562 15.9095 65.46 15.4766C65.1683 15.0436 64.749 14.8271 64.2021 14.8271C63.5231 14.8271 63.0355 15.1074 62.7393 15.668V18.9492C63.04 19.5234 63.5322 19.8105 64.2158 19.8105C64.7445 19.8105 65.1569 19.5986 65.4531 19.1748C65.7539 18.7464 65.9043 18.0993 65.9043 17.2334ZM68.6592 17.2334C68.6592 16.5088 68.8027 15.8571 69.0898 15.2783C69.377 14.695 69.7803 14.2484 70.2998 13.9385C70.8193 13.624 71.4163 13.4668 72.0908 13.4668C73.0889 13.4668 73.8978 13.7881 74.5176 14.4307C75.1419 15.0732 75.4792 15.9255 75.5293 16.9873L75.5361 17.377C75.5361 18.1061 75.3949 18.7578 75.1123 19.332C74.8343 19.9062 74.4333 20.3506 73.9092 20.665C73.3896 20.9795 72.7881 21.1367 72.1045 21.1367C71.0609 21.1367 70.2246 20.7904 69.5957 20.0977C68.9714 19.4004 68.6592 18.473 68.6592 17.3154V17.2334ZM70.3203 17.377C70.3203 18.138 70.4775 18.735 70.792 19.168C71.1064 19.5964 71.5439 19.8105 72.1045 19.8105C72.665 19.8105 73.1003 19.5918 73.4102 19.1543C73.7246 18.7168 73.8818 18.0765 73.8818 17.2334C73.8818 16.486 73.7201 15.8936 73.3965 15.4561C73.0775 15.0186 72.6423 14.7998 72.0908 14.7998C71.5485 14.7998 71.1178 15.0163 70.7988 15.4492C70.4798 15.8776 70.3203 16.5202 70.3203 17.377ZM80.1162 17.2471C80.1162 16.1077 80.3805 15.194 80.9092 14.5059C81.4378 13.8132 82.1465 13.4668 83.0352 13.4668C83.819 13.4668 84.4525 13.7402 84.9355 14.2871V10.5H86.5967V21H85.0928L85.0107 20.2344C84.514 20.8359 83.8509 21.1367 83.0215 21.1367C82.1556 21.1367 81.4538 20.7881 80.916 20.0908C80.3828 19.3936 80.1162 18.4456 80.1162 17.2471ZM81.7773 17.3906C81.7773 18.1426 81.9209 18.7305 82.208 19.1543C82.4997 19.5736 82.9121 19.7832 83.4453 19.7832C84.1243 19.7832 84.6211 19.4801 84.9355 18.874V15.7158C84.6302 15.1234 84.138 14.8271 83.459 14.8271C82.9212 14.8271 82.5065 15.0413 82.2148 15.4697C81.9232 15.8936 81.7773 16.5339 81.7773 17.3906ZM91.5869 21.1367C90.5342 21.1367 89.6797 20.8063 89.0234 20.1455C88.3717 19.4801 88.0459 18.596 88.0459 17.4932V17.2881C88.0459 16.5498 88.1872 15.8913 88.4697 15.3125C88.7568 14.7292 89.1579 14.2757 89.6729 13.9521C90.1878 13.6286 90.762 13.4668 91.3955 13.4668C92.4027 13.4668 93.1797 13.7881 93.7266 14.4307C94.278 15.0732 94.5537 15.9824 94.5537 17.1582V17.8281H89.7207C89.7708 18.4388 89.9736 18.9219 90.3291 19.2773C90.6891 19.6328 91.1403 19.8105 91.6826 19.8105C92.4437 19.8105 93.0635 19.5029 93.542 18.8877L94.4375 19.7422C94.1413 20.1842 93.7448 20.5283 93.248 20.7744C92.7559 21.016 92.2021 21.1367 91.5869 21.1367ZM91.3887 14.7998C90.9329 14.7998 90.5638 14.9593 90.2812 15.2783C90.0033 15.5973 89.8255 16.0417 89.748 16.6113H92.9131V16.4883C92.8766 15.9323 92.7285 15.513 92.4688 15.2305C92.209 14.9434 91.849 14.7998 91.3887 14.7998ZM101.943 18.8945L103.509 13.6035H105.225L102.661 21H101.219L98.6348 13.6035H100.357L101.943 18.8945ZM109.429 21.1367C108.376 21.1367 107.521 20.8063 106.865 20.1455C106.214 19.4801 105.888 18.596 105.888 17.4932V17.2881C105.888 16.5498 106.029 15.8913 106.312 15.3125C106.599 14.7292 107 14.2757 107.515 13.9521C108.03 13.6286 108.604 13.4668 109.237 13.4668C110.244 13.4668 111.021 13.7881 111.568 14.4307C112.12 15.0732 112.396 15.9824 112.396 17.1582V17.8281H107.562C107.613 18.4388 107.815 18.9219 108.171 19.2773C108.531 19.6328 108.982 19.8105 109.524 19.8105C110.285 19.8105 110.905 19.5029 111.384 18.8877L112.279 19.7422C111.983 20.1842 111.587 20.5283 111.09 20.7744C110.598 21.016 110.044 21.1367 109.429 21.1367ZM109.23 14.7998C108.775 14.7998 108.406 14.9593 108.123 15.2783C107.845 15.5973 107.667 16.0417 107.59 16.6113H110.755V16.4883C110.718 15.9323 110.57 15.513 110.311 15.2305C110.051 14.9434 109.691 14.7998 109.23 14.7998ZM115.479 21H113.817V13.6035H115.479V21ZM115.164 10.5479H117.058L115.164 12.6191H113.831L115.164 10.5479ZM120.407 19.8105C120.822 19.8105 121.166 19.6898 121.439 19.4482C121.713 19.2067 121.859 18.9082 121.877 18.5527H123.442C123.424 19.013 123.281 19.4437 123.012 19.8447C122.743 20.2412 122.378 20.5557 121.918 20.7881C121.458 21.0205 120.961 21.1367 120.428 21.1367C119.393 21.1367 118.573 20.8018 117.967 20.1318C117.361 19.4619 117.058 18.5368 117.058 17.3564V17.1855C117.058 16.0599 117.358 15.1598 117.96 14.4854C118.562 13.8063 119.382 13.4668 120.421 13.4668C121.3 13.4668 122.016 13.7243 122.567 14.2393C123.123 14.7497 123.415 15.4219 123.442 16.2559H121.877C121.859 15.832 121.713 15.4834 121.439 15.21C121.171 14.9365 120.826 14.7998 120.407 14.7998C119.869 14.7998 119.455 14.9958 119.163 15.3877C118.871 15.7751 118.723 16.3652 118.719 17.1582V17.4248C118.719 18.2269 118.862 18.8262 119.149 19.2227C119.441 19.6146 119.86 19.8105 120.407 19.8105ZM129.178 20.2754C128.69 20.8496 127.997 21.1367 127.1 21.1367C126.298 21.1367 125.689 20.902 125.274 20.4326C124.864 19.9632 124.659 19.2842 124.659 18.3955V13.6035H126.32V18.375C126.32 19.3138 126.71 19.7832 127.489 19.7832C128.296 19.7832 128.84 19.4938 129.123 18.915V13.6035H130.784V21H129.219L129.178 20.2754ZM134.243 21H132.582V10.5H134.243V21ZM135.747 17.2334C135.747 16.5088 135.891 15.8571 136.178 15.2783C136.465 14.695 136.868 14.2484 137.388 13.9385C137.907 13.624 138.504 13.4668 139.179 13.4668C140.177 13.4668 140.986 13.7881 141.605 14.4307C142.23 15.0732 142.567 15.9255 142.617 16.9873L142.624 17.377C142.624 18.1061 142.483 18.7578 142.2 19.332C141.922 19.9062 141.521 20.3506 140.997 20.665C140.478 20.9795 139.876 21.1367 139.192 21.1367C138.149 21.1367 137.312 20.7904 136.684 20.0977C136.059 19.4004 135.747 18.473 135.747 17.3154V17.2334ZM137.408 17.377C137.408 18.138 137.565 18.735 137.88 19.168C138.194 19.5964 138.632 19.8105 139.192 19.8105C139.753 19.8105 140.188 19.5918 140.498 19.1543C140.812 18.7168 140.97 18.0765 140.97 17.2334C140.97 16.486 140.808 15.8936 140.484 15.4561C140.165 15.0186 139.73 14.7998 139.179 14.7998C138.636 14.7998 138.206 15.0163 137.887 15.4492C137.568 15.8776 137.408 16.5202 137.408 17.377ZM148.175 18.9902C148.175 18.694 148.052 18.4684 147.806 18.3135C147.564 18.1585 147.161 18.0218 146.596 17.9033C146.031 17.7848 145.559 17.6344 145.181 17.4521C144.351 17.0511 143.937 16.4701 143.937 15.709C143.937 15.071 144.205 14.5378 144.743 14.1094C145.281 13.681 145.965 13.4668 146.794 13.4668C147.678 13.4668 148.391 13.6855 148.934 14.123C149.48 14.5605 149.754 15.1279 149.754 15.8252H148.093C148.093 15.5062 147.974 15.2419 147.737 15.0322C147.5 14.818 147.186 14.7109 146.794 14.7109C146.429 14.7109 146.131 14.7952 145.898 14.9639C145.671 15.1325 145.557 15.3581 145.557 15.6406C145.557 15.8958 145.664 16.0941 145.878 16.2354C146.092 16.3766 146.525 16.5202 147.177 16.666C147.828 16.8073 148.339 16.9782 148.708 17.1787C149.082 17.3747 149.357 17.6117 149.535 17.8896C149.717 18.1676 149.809 18.5049 149.809 18.9014C149.809 19.5667 149.533 20.1068 148.981 20.5215C148.43 20.9316 147.708 21.1367 146.814 21.1367C146.208 21.1367 145.668 21.0273 145.194 20.8086C144.72 20.5898 144.351 20.2891 144.087 19.9062C143.823 19.5234 143.69 19.111 143.69 18.6689H145.304C145.326 19.0609 145.475 19.3639 145.748 19.5781C146.021 19.7878 146.384 19.8926 146.835 19.8926C147.272 19.8926 147.605 19.8105 147.833 19.6465C148.061 19.4779 148.175 19.2591 148.175 18.9902Z" fill="#005B9E"/>
<path d="M249.741 19.6191H254.26V21H248.012V11.0469H249.741V19.6191ZM255.114 17.2334C255.114 16.5088 255.258 15.8571 255.545 15.2783C255.832 14.695 256.235 14.2484 256.755 13.9385C257.274 13.624 257.871 13.4668 258.546 13.4668C259.544 13.4668 260.353 13.7881 260.973 14.4307C261.597 15.0732 261.934 15.9255 261.984 16.9873L261.991 17.377C261.991 18.1061 261.85 18.7578 261.567 19.332C261.289 19.9062 260.888 20.3506 260.364 20.665C259.845 20.9795 259.243 21.1367 258.56 21.1367C257.516 21.1367 256.68 20.7904 256.051 20.0977C255.426 19.4004 255.114 18.473 255.114 17.3154V17.2334ZM256.775 17.377C256.775 18.138 256.933 18.735 257.247 19.168C257.562 19.5964 257.999 19.8105 258.56 19.8105C259.12 19.8105 259.555 19.5918 259.865 19.1543C260.18 18.7168 260.337 18.0765 260.337 17.2334C260.337 16.486 260.175 15.8936 259.852 15.4561C259.533 15.0186 259.097 14.7998 258.546 14.7998C258.004 14.7998 257.573 15.0163 257.254 15.4492C256.935 15.8776 256.775 16.5202 256.775 17.377ZM266.435 19.8105C266.849 19.8105 267.193 19.6898 267.467 19.4482C267.74 19.2067 267.886 18.9082 267.904 18.5527H269.47C269.451 19.013 269.308 19.4437 269.039 19.8447C268.77 20.2412 268.406 20.5557 267.945 20.7881C267.485 21.0205 266.988 21.1367 266.455 21.1367C265.421 21.1367 264.6 20.8018 263.994 20.1318C263.388 19.4619 263.085 18.5368 263.085 17.3564V17.1855C263.085 16.0599 263.386 15.1598 263.987 14.4854C264.589 13.8063 265.409 13.4668 266.448 13.4668C267.328 13.4668 268.043 13.7243 268.595 14.2393C269.151 14.7497 269.442 15.4219 269.47 16.2559H267.904C267.886 15.832 267.74 15.4834 267.467 15.21C267.198 14.9365 266.854 14.7998 266.435 14.7998C265.897 14.7998 265.482 14.9958 265.19 15.3877C264.899 15.7751 264.751 16.3652 264.746 17.1582V17.4248C264.746 18.2269 264.89 18.8262 265.177 19.2227C265.468 19.6146 265.888 19.8105 266.435 19.8105ZM275.144 21C275.071 20.8587 275.007 20.6286 274.952 20.3096C274.424 20.861 273.776 21.1367 273.011 21.1367C272.268 21.1367 271.662 20.9248 271.192 20.501C270.723 20.0771 270.488 19.5531 270.488 18.9287C270.488 18.1403 270.78 17.5365 271.363 17.1172C271.951 16.6934 272.79 16.4814 273.879 16.4814H274.897V15.9961C274.897 15.6133 274.79 15.3079 274.576 15.0801C274.362 14.8477 274.036 14.7314 273.599 14.7314C273.22 14.7314 272.91 14.8271 272.669 15.0186C272.427 15.2054 272.307 15.4447 272.307 15.7363H270.646C270.646 15.3307 270.78 14.9525 271.049 14.6016C271.318 14.2461 271.682 13.9681 272.143 13.7676C272.607 13.5671 273.125 13.4668 273.694 13.4668C274.56 13.4668 275.251 13.6855 275.766 14.123C276.281 14.556 276.545 15.1667 276.559 15.9551V19.291C276.559 19.9564 276.652 20.4873 276.839 20.8838V21H275.144ZM273.318 19.8037C273.646 19.8037 273.954 19.724 274.241 19.5645C274.533 19.4049 274.752 19.1908 274.897 18.9219V17.5273H274.002C273.387 17.5273 272.924 17.6344 272.614 17.8486C272.304 18.0628 272.149 18.3659 272.149 18.7578C272.149 19.0768 272.254 19.332 272.464 19.5234C272.678 19.7103 272.963 19.8037 273.318 19.8037ZM280.065 21H278.404V10.5H280.065V21ZM283.647 21H281.986V13.6035H283.647V21ZM281.884 11.6826C281.884 11.4274 281.964 11.2155 282.123 11.0469C282.287 10.8783 282.52 10.7939 282.82 10.7939C283.121 10.7939 283.354 10.8783 283.518 11.0469C283.682 11.2155 283.764 11.4274 283.764 11.6826C283.764 11.9333 283.682 12.1429 283.518 12.3115C283.354 12.4756 283.121 12.5576 282.82 12.5576C282.52 12.5576 282.287 12.4756 282.123 12.3115C281.964 12.1429 281.884 11.9333 281.884 11.6826ZM287.236 19.6738H291.174V21H285.172V19.9131L288.925 14.9434H285.24V13.6035H291.03V14.6562L287.236 19.6738ZM296.923 21C296.85 20.8587 296.786 20.6286 296.731 20.3096C296.203 20.861 295.556 21.1367 294.79 21.1367C294.047 21.1367 293.441 20.9248 292.972 20.501C292.502 20.0771 292.268 19.5531 292.268 18.9287C292.268 18.1403 292.559 17.5365 293.143 17.1172C293.73 16.6934 294.569 16.4814 295.658 16.4814H296.677V15.9961C296.677 15.6133 296.57 15.3079 296.355 15.0801C296.141 14.8477 295.815 14.7314 295.378 14.7314C295 14.7314 294.69 14.8271 294.448 15.0186C294.207 15.2054 294.086 15.4447 294.086 15.7363H292.425C292.425 15.3307 292.559 14.9525 292.828 14.6016C293.097 14.2461 293.462 13.9681 293.922 13.7676C294.387 13.5671 294.904 13.4668 295.474 13.4668C296.34 13.4668 297.03 13.6855 297.545 14.123C298.06 14.556 298.324 15.1667 298.338 15.9551V19.291C298.338 19.9564 298.431 20.4873 298.618 20.8838V21H296.923ZM295.098 19.8037C295.426 19.8037 295.733 19.724 296.021 19.5645C296.312 19.4049 296.531 19.1908 296.677 18.9219V17.5273H295.781C295.166 17.5273 294.703 17.6344 294.394 17.8486C294.084 18.0628 293.929 18.3659 293.929 18.7578C293.929 19.0768 294.034 19.332 294.243 19.5234C294.457 19.7103 294.742 19.8037 295.098 19.8037ZM303.116 19.8105C303.531 19.8105 303.875 19.6898 304.148 19.4482C304.422 19.2067 304.568 18.9082 304.586 18.5527H306.151C306.133 19.013 305.99 19.4437 305.721 19.8447C305.452 20.2412 305.087 20.5557 304.627 20.7881C304.167 21.0205 303.67 21.1367 303.137 21.1367C302.102 21.1367 301.282 20.8018 300.676 20.1318C300.07 19.4619 299.767 18.5368 299.767 17.3564V17.1855C299.767 16.0599 300.067 15.1598 300.669 14.4854C301.271 13.8063 302.091 13.4668 303.13 13.4668C304.009 13.4668 304.725 13.7243 305.276 14.2393C305.832 14.7497 306.124 15.4219 306.151 16.2559H304.586C304.568 15.832 304.422 15.4834 304.148 15.21C303.88 14.9365 303.535 14.7998 303.116 14.7998C302.578 14.7998 302.164 14.9958 301.872 15.3877C301.58 15.7751 301.432 16.3652 301.428 17.1582V17.4248C301.428 18.2269 301.571 18.8262 301.858 19.2227C302.15 19.6146 302.569 19.8105 303.116 19.8105ZM303.567 21.0137L303.492 21.3828C304.176 21.5059 304.518 21.9001 304.518 22.5654C304.518 23.0439 304.322 23.4176 303.93 23.6865C303.538 23.9554 302.989 24.0898 302.282 24.0898L302.234 23.1533C302.535 23.1533 302.765 23.0986 302.925 22.9893C303.089 22.8844 303.171 22.7363 303.171 22.5449C303.171 22.3398 303.089 22.1963 302.925 22.1143C302.765 22.0368 302.503 21.9867 302.139 21.9639L302.357 21.0137H303.567ZM311.825 21C311.752 20.8587 311.688 20.6286 311.634 20.3096C311.105 20.861 310.458 21.1367 309.692 21.1367C308.95 21.1367 308.343 20.9248 307.874 20.501C307.405 20.0771 307.17 19.5531 307.17 18.9287C307.17 18.1403 307.462 17.5365 308.045 17.1172C308.633 16.6934 309.471 16.4814 310.561 16.4814H311.579V15.9961C311.579 15.6133 311.472 15.3079 311.258 15.0801C311.044 14.8477 310.718 14.7314 310.28 14.7314C309.902 14.7314 309.592 14.8271 309.351 15.0186C309.109 15.2054 308.988 15.4447 308.988 15.7363H307.327C307.327 15.3307 307.462 14.9525 307.73 14.6016C307.999 14.2461 308.364 13.9681 308.824 13.7676C309.289 13.5671 309.806 13.4668 310.376 13.4668C311.242 13.4668 311.932 13.6855 312.447 14.123C312.962 14.556 313.227 15.1667 313.24 15.9551V19.291C313.24 19.9564 313.334 20.4873 313.521 20.8838V21H311.825ZM310 19.8037C310.328 19.8037 310.636 19.724 310.923 19.5645C311.215 19.4049 311.433 19.1908 311.579 18.9219V17.5273H310.684C310.068 17.5273 309.606 17.6344 309.296 17.8486C308.986 18.0628 308.831 18.3659 308.831 18.7578C308.831 19.0768 308.936 19.332 309.146 19.5234C309.36 19.7103 309.645 19.8037 310 19.8037ZM312.939 10.6504C312.939 11.1517 312.794 11.5687 312.502 11.9014C312.215 12.234 311.853 12.4004 311.415 12.4004C311.237 12.4004 311.082 12.3822 310.95 12.3457C310.823 12.3047 310.638 12.2158 310.396 12.0791C310.16 11.9424 309.991 11.8604 309.891 11.833C309.795 11.8057 309.688 11.792 309.569 11.792C309.396 11.792 309.248 11.8581 309.125 11.9902C309.007 12.1178 308.947 12.2865 308.947 12.4961L307.929 12.4414C307.929 11.9401 308.072 11.5186 308.359 11.1768C308.651 10.835 309.013 10.6641 309.446 10.6641C309.706 10.6641 310.018 10.7666 310.383 10.9717C310.752 11.1768 311.055 11.2793 311.292 11.2793C311.465 11.2793 311.613 11.2155 311.736 11.0879C311.859 10.9557 311.921 10.7826 311.921 10.5684L312.939 10.6504ZM314.669 17.2334C314.669 16.5088 314.812 15.8571 315.1 15.2783C315.387 14.695 315.79 14.2484 316.31 13.9385C316.829 13.624 317.426 13.4668 318.101 13.4668C319.099 13.4668 319.908 13.7881 320.527 14.4307C321.152 15.0732 321.489 15.9255 321.539 16.9873L321.546 17.377C321.546 18.1061 321.405 18.7578 321.122 19.332C320.844 19.9062 320.443 20.3506 319.919 20.665C319.399 20.9795 318.798 21.1367 318.114 21.1367C317.071 21.1367 316.234 20.7904 315.605 20.0977C314.981 19.4004 314.669 18.473 314.669 17.3154V17.2334ZM316.33 17.377C316.33 18.138 316.487 18.735 316.802 19.168C317.116 19.5964 317.554 19.8105 318.114 19.8105C318.675 19.8105 319.11 19.5918 319.42 19.1543C319.734 18.7168 319.892 18.0765 319.892 17.2334C319.892 16.486 319.73 15.8936 319.406 15.4561C319.087 15.0186 318.652 14.7998 318.101 14.7998C317.558 14.7998 317.128 15.0163 316.809 15.4492C316.49 15.8776 316.33 16.5202 316.33 17.377ZM329.694 21.1367C328.642 21.1367 327.787 20.8063 327.131 20.1455C326.479 19.4801 326.153 18.596 326.153 17.4932V17.2881C326.153 16.5498 326.295 15.8913 326.577 15.3125C326.864 14.7292 327.265 14.2757 327.78 13.9521C328.295 13.6286 328.869 13.4668 329.503 13.4668C330.51 13.4668 331.287 13.7881 331.834 14.4307C332.385 15.0732 332.661 15.9824 332.661 17.1582V17.8281H327.828C327.878 18.4388 328.081 18.9219 328.437 19.2773C328.797 19.6328 329.248 19.8105 329.79 19.8105C330.551 19.8105 331.171 19.5029 331.649 18.8877L332.545 19.7422C332.249 20.1842 331.852 20.5283 331.355 20.7744C330.863 21.016 330.31 21.1367 329.694 21.1367ZM329.496 14.7998C329.04 14.7998 328.671 14.9593 328.389 15.2783C328.111 15.5973 327.933 16.0417 327.855 16.6113H331.021V16.4883C330.984 15.9323 330.836 15.513 330.576 15.2305C330.316 14.9434 329.956 14.7998 329.496 14.7998ZM337.132 17.2471C337.132 16.1077 337.396 15.194 337.925 14.5059C338.453 13.8132 339.162 13.4668 340.051 13.4668C340.835 13.4668 341.468 13.7402 341.951 14.2871V10.5H343.612V21H342.108L342.026 20.2344C341.53 20.8359 340.867 21.1367 340.037 21.1367C339.171 21.1367 338.469 20.7881 337.932 20.0908C337.398 19.3936 337.132 18.4456 337.132 17.2471ZM338.793 17.3906C338.793 18.1426 338.937 18.7305 339.224 19.1543C339.515 19.5736 339.928 19.7832 340.461 19.7832C341.14 19.7832 341.637 19.4801 341.951 18.874V15.7158C341.646 15.1234 341.154 14.8271 340.475 14.8271C339.937 14.8271 339.522 15.0413 339.23 15.4697C338.939 15.8936 338.793 16.5339 338.793 17.3906ZM349.765 21C349.692 20.8587 349.628 20.6286 349.573 20.3096C349.045 20.861 348.397 21.1367 347.632 21.1367C346.889 21.1367 346.283 20.9248 345.813 20.501C345.344 20.0771 345.109 19.5531 345.109 18.9287C345.109 18.1403 345.401 17.5365 345.984 17.1172C346.572 16.6934 347.411 16.4814 348.5 16.4814H349.519V15.9961C349.519 15.6133 349.411 15.3079 349.197 15.0801C348.983 14.8477 348.657 14.7314 348.22 14.7314C347.841 14.7314 347.532 14.8271 347.29 15.0186C347.049 15.2054 346.928 15.4447 346.928 15.7363H345.267C345.267 15.3307 345.401 14.9525 345.67 14.6016C345.939 14.2461 346.303 13.9681 346.764 13.7676C347.229 13.5671 347.746 13.4668 348.315 13.4668C349.181 13.4668 349.872 13.6855 350.387 14.123C350.902 14.556 351.166 15.1667 351.18 15.9551V19.291C351.18 19.9564 351.273 20.4873 351.46 20.8838V21H349.765ZM347.939 19.8037C348.268 19.8037 348.575 19.724 348.862 19.5645C349.154 19.4049 349.373 19.1908 349.519 18.9219V17.5273H348.623C348.008 17.5273 347.545 17.6344 347.235 17.8486C346.925 18.0628 346.771 18.3659 346.771 18.7578C346.771 19.0768 346.875 19.332 347.085 19.5234C347.299 19.7103 347.584 19.8037 347.939 19.8037ZM355.001 11.8057V13.6035H356.307V14.834H355.001V18.9629C355.001 19.2454 355.056 19.4505 355.165 19.5781C355.279 19.7012 355.479 19.7627 355.767 19.7627C355.958 19.7627 356.152 19.7399 356.348 19.6943V20.9795C355.969 21.0843 355.605 21.1367 355.254 21.1367C353.978 21.1367 353.34 20.4326 353.34 19.0244V14.834H352.123V13.6035H353.34V11.8057H355.001ZM362.001 21C361.928 20.8587 361.864 20.6286 361.81 20.3096C361.281 20.861 360.634 21.1367 359.868 21.1367C359.125 21.1367 358.519 20.9248 358.05 20.501C357.58 20.0771 357.346 19.5531 357.346 18.9287C357.346 18.1403 357.637 17.5365 358.221 17.1172C358.809 16.6934 359.647 16.4814 360.736 16.4814H361.755V15.9961C361.755 15.6133 361.648 15.3079 361.434 15.0801C361.219 14.8477 360.894 14.7314 360.456 14.7314C360.078 14.7314 359.768 14.8271 359.526 15.0186C359.285 15.2054 359.164 15.4447 359.164 15.7363H357.503C357.503 15.3307 357.637 14.9525 357.906 14.6016C358.175 14.2461 358.54 13.9681 359 13.7676C359.465 13.5671 359.982 13.4668 360.552 13.4668C361.418 13.4668 362.108 13.6855 362.623 14.123C363.138 14.556 363.402 15.1667 363.416 15.9551V19.291C363.416 19.9564 363.509 20.4873 363.696 20.8838V21H362.001ZM360.176 19.8037C360.504 19.8037 360.812 19.724 361.099 19.5645C361.39 19.4049 361.609 19.1908 361.755 18.9219V17.5273H360.859C360.244 17.5273 359.782 17.6344 359.472 17.8486C359.162 18.0628 359.007 18.3659 359.007 18.7578C359.007 19.0768 359.112 19.332 359.321 19.5234C359.535 19.7103 359.82 19.8037 360.176 19.8037Z" fill="#A4A4A4"/>
<path d="M464.669 16.165H462.741V20H461.012V10.0469H464.512C465.66 10.0469 466.547 10.3044 467.171 10.8193C467.795 11.3343 468.107 12.0794 468.107 13.0547C468.107 13.7201 467.946 14.2783 467.622 14.7295C467.303 15.1761 466.856 15.5202 466.282 15.7617L468.518 19.9111V20H466.665L464.669 16.165ZM462.741 14.7773H464.519C465.102 14.7773 465.558 14.6315 465.886 14.3398C466.214 14.0436 466.378 13.6403 466.378 13.1299C466.378 12.5967 466.225 12.1842 465.92 11.8926C465.619 11.6009 465.168 11.4505 464.566 11.4414H462.741V14.7773ZM472.845 20.1367C471.792 20.1367 470.938 19.8063 470.281 19.1455C469.63 18.4801 469.304 17.596 469.304 16.4932V16.2881C469.304 15.5498 469.445 14.8913 469.728 14.3125C470.015 13.7292 470.416 13.2757 470.931 12.9521C471.446 12.6286 472.02 12.4668 472.653 12.4668C473.66 12.4668 474.438 12.7881 474.984 13.4307C475.536 14.0732 475.812 14.9824 475.812 16.1582V16.8281H470.979C471.029 17.4388 471.231 17.9219 471.587 18.2773C471.947 18.6328 472.398 18.8105 472.94 18.8105C473.701 18.8105 474.321 18.5029 474.8 17.8877L475.695 18.7422C475.399 19.1842 475.003 19.5283 474.506 19.7744C474.014 20.016 473.46 20.1367 472.845 20.1367ZM472.646 13.7998C472.191 13.7998 471.822 13.9593 471.539 14.2783C471.261 14.5973 471.083 15.0417 471.006 15.6113H474.171V15.4883C474.134 14.9323 473.986 14.513 473.727 14.2305C473.467 13.9434 473.107 13.7998 472.646 13.7998ZM481.253 17.9902C481.253 17.694 481.13 17.4684 480.884 17.3135C480.642 17.1585 480.239 17.0218 479.674 16.9033C479.109 16.7848 478.637 16.6344 478.259 16.4521C477.429 16.0511 477.015 15.4701 477.015 14.709C477.015 14.071 477.284 13.5378 477.821 13.1094C478.359 12.681 479.043 12.4668 479.872 12.4668C480.756 12.4668 481.469 12.6855 482.012 13.123C482.559 13.5605 482.832 14.1279 482.832 14.8252H481.171C481.171 14.5062 481.052 14.2419 480.815 14.0322C480.578 13.818 480.264 13.7109 479.872 13.7109C479.507 13.7109 479.209 13.7952 478.977 13.9639C478.749 14.1325 478.635 14.3581 478.635 14.6406C478.635 14.8958 478.742 15.0941 478.956 15.2354C479.17 15.3766 479.603 15.5202 480.255 15.666C480.907 15.8073 481.417 15.9782 481.786 16.1787C482.16 16.3747 482.436 16.6117 482.613 16.8896C482.796 17.1676 482.887 17.5049 482.887 17.9014C482.887 18.5667 482.611 19.1068 482.06 19.5215C481.508 19.9316 480.786 20.1367 479.893 20.1367C479.286 20.1367 478.746 20.0273 478.272 19.8086C477.799 19.5898 477.429 19.2891 477.165 18.9062C476.901 18.5234 476.769 18.111 476.769 17.6689H478.382C478.405 18.0609 478.553 18.3639 478.826 18.5781C479.1 18.7878 479.462 18.8926 479.913 18.8926C480.351 18.8926 480.683 18.8105 480.911 18.6465C481.139 18.4779 481.253 18.2591 481.253 17.9902ZM488.82 19.2754C488.333 19.8496 487.64 20.1367 486.742 20.1367C485.94 20.1367 485.332 19.902 484.917 19.4326C484.507 18.9632 484.302 18.2842 484.302 17.3955V12.6035H485.963V17.375C485.963 18.3138 486.353 18.7832 487.132 18.7832C487.938 18.7832 488.483 18.4938 488.766 17.915V12.6035H490.427V20H488.861L488.82 19.2754ZM493.681 12.6035L493.729 13.376C494.248 12.7699 494.959 12.4668 495.861 12.4668C496.85 12.4668 497.527 12.8451 497.892 13.6016C498.429 12.8451 499.186 12.4668 500.161 12.4668C500.977 12.4668 501.583 12.6924 501.979 13.1436C502.381 13.5947 502.586 14.2601 502.595 15.1396V20H500.934V15.1875C500.934 14.7181 500.831 14.374 500.626 14.1553C500.421 13.9365 500.081 13.8271 499.607 13.8271C499.229 13.8271 498.919 13.9297 498.678 14.1348C498.441 14.3353 498.274 14.5996 498.179 14.9277L498.186 20H496.524V15.1328C496.502 14.2624 496.057 13.8271 495.191 13.8271C494.526 13.8271 494.054 14.0983 493.776 14.6406V20H492.115V12.6035H493.681ZM503.989 16.2334C503.989 15.5088 504.133 14.8571 504.42 14.2783C504.707 13.695 505.11 13.2484 505.63 12.9385C506.149 12.624 506.746 12.4668 507.421 12.4668C508.419 12.4668 509.228 12.7881 509.848 13.4307C510.472 14.0732 510.809 14.9255 510.859 15.9873L510.866 16.377C510.866 17.1061 510.725 17.7578 510.442 18.332C510.164 18.9062 509.763 19.3506 509.239 19.665C508.72 19.9795 508.118 20.1367 507.435 20.1367C506.391 20.1367 505.555 19.7904 504.926 19.0977C504.301 18.4004 503.989 17.473 503.989 16.3154V16.2334ZM505.65 16.377C505.65 17.138 505.808 17.735 506.122 18.168C506.437 18.5964 506.874 18.8105 507.435 18.8105C507.995 18.8105 508.43 18.5918 508.74 18.1543C509.055 17.7168 509.212 17.0765 509.212 16.2334C509.212 15.486 509.05 14.8936 508.727 14.4561C508.408 14.0186 507.972 13.7998 507.421 13.7998C506.879 13.7998 506.448 14.0163 506.129 14.4492C505.81 14.8776 505.65 15.5202 505.65 16.377ZM515.446 16.2471C515.446 15.1077 515.711 14.194 516.239 13.5059C516.768 12.8132 517.477 12.4668 518.365 12.4668C519.149 12.4668 519.783 12.7402 520.266 13.2871V9.5H521.927V20H520.423L520.341 19.2344C519.844 19.8359 519.181 20.1367 518.352 20.1367C517.486 20.1367 516.784 19.7881 516.246 19.0908C515.713 18.3936 515.446 17.4456 515.446 16.2471ZM517.107 16.3906C517.107 17.1426 517.251 17.7305 517.538 18.1543C517.83 18.5736 518.242 18.7832 518.775 18.7832C519.454 18.7832 519.951 18.4801 520.266 17.874V14.7158C519.96 14.1234 519.468 13.8271 518.789 13.8271C518.251 13.8271 517.837 14.0413 517.545 14.4697C517.253 14.8936 517.107 15.5339 517.107 16.3906ZM528.079 20C528.006 19.8587 527.942 19.6286 527.888 19.3096C527.359 19.861 526.712 20.1367 525.946 20.1367C525.203 20.1367 524.597 19.9248 524.128 19.501C523.659 19.0771 523.424 18.5531 523.424 17.9287C523.424 17.1403 523.715 16.5365 524.299 16.1172C524.887 15.6934 525.725 15.4814 526.814 15.4814H527.833V14.9961C527.833 14.6133 527.726 14.3079 527.512 14.0801C527.298 13.8477 526.972 13.7314 526.534 13.7314C526.156 13.7314 525.846 13.8271 525.604 14.0186C525.363 14.2054 525.242 14.4447 525.242 14.7363H523.581C523.581 14.3307 523.715 13.9525 523.984 13.6016C524.253 13.2461 524.618 12.9681 525.078 12.7676C525.543 12.5671 526.06 12.4668 526.63 12.4668C527.496 12.4668 528.186 12.6855 528.701 13.123C529.216 13.556 529.48 14.1667 529.494 14.9551V18.291C529.494 18.9564 529.588 19.4873 529.774 19.8838V20H528.079ZM526.254 18.8037C526.582 18.8037 526.89 18.724 527.177 18.5645C527.468 18.4049 527.687 18.1908 527.833 17.9219V16.5273H526.938C526.322 16.5273 525.86 16.6344 525.55 16.8486C525.24 17.0628 525.085 17.3659 525.085 17.7578C525.085 18.0768 525.19 18.332 525.399 18.5234C525.614 18.7103 525.898 18.8037 526.254 18.8037ZM538.866 17.9902C538.866 17.694 538.743 17.4684 538.497 17.3135C538.256 17.1585 537.852 17.0218 537.287 16.9033C536.722 16.7848 536.25 16.6344 535.872 16.4521C535.043 16.0511 534.628 15.4701 534.628 14.709C534.628 14.071 534.897 13.5378 535.435 13.1094C535.972 12.681 536.656 12.4668 537.485 12.4668C538.369 12.4668 539.083 12.6855 539.625 13.123C540.172 13.5605 540.445 14.1279 540.445 14.8252H538.784C538.784 14.5062 538.666 14.2419 538.429 14.0322C538.192 13.818 537.877 13.7109 537.485 13.7109C537.121 13.7109 536.822 13.7952 536.59 13.9639C536.362 14.1325 536.248 14.3581 536.248 14.6406C536.248 14.8958 536.355 15.0941 536.569 15.2354C536.784 15.3766 537.216 15.5202 537.868 15.666C538.52 15.8073 539.03 15.9782 539.399 16.1787C539.773 16.3747 540.049 16.6117 540.227 16.8896C540.409 17.1676 540.5 17.5049 540.5 17.9014C540.5 18.5667 540.224 19.1068 539.673 19.5215C539.121 19.9316 538.399 20.1367 537.506 20.1367C536.9 20.1367 536.36 20.0273 535.886 19.8086C535.412 19.5898 535.043 19.2891 534.778 18.9062C534.514 18.5234 534.382 18.111 534.382 17.6689H535.995C536.018 18.0609 536.166 18.3639 536.439 18.5781C536.713 18.7878 537.075 18.8926 537.526 18.8926C537.964 18.8926 538.297 18.8105 538.524 18.6465C538.752 18.4779 538.866 18.2591 538.866 17.9902ZM543.72 20H542.059V12.6035H543.72V20ZM541.956 10.6826C541.956 10.4274 542.036 10.2155 542.195 10.0469C542.359 9.87826 542.592 9.79395 542.893 9.79395C543.193 9.79395 543.426 9.87826 543.59 10.0469C543.754 10.2155 543.836 10.4274 543.836 10.6826C543.836 10.9333 543.754 11.1429 543.59 11.3115C543.426 11.4756 543.193 11.5576 542.893 11.5576C542.592 11.5576 542.359 11.4756 542.195 11.3115C542.036 11.1429 541.956 10.9333 541.956 10.6826ZM547.097 12.6035L547.145 13.376C547.664 12.7699 548.375 12.4668 549.277 12.4668C550.266 12.4668 550.943 12.8451 551.308 13.6016C551.845 12.8451 552.602 12.4668 553.577 12.4668C554.393 12.4668 554.999 12.6924 555.396 13.1436C555.797 13.5947 556.002 14.2601 556.011 15.1396V20H554.35V15.1875C554.35 14.7181 554.247 14.374 554.042 14.1553C553.837 13.9365 553.497 13.8271 553.023 13.8271C552.645 13.8271 552.335 13.9297 552.094 14.1348C551.857 14.3353 551.69 14.5996 551.595 14.9277L551.602 20H549.94V15.1328C549.918 14.2624 549.473 13.8271 548.607 13.8271C547.942 13.8271 547.47 14.0983 547.192 14.6406V20H545.531V12.6035H547.097ZM562.197 19.2754C561.71 19.8496 561.017 20.1367 560.119 20.1367C559.317 20.1367 558.709 19.902 558.294 19.4326C557.884 18.9632 557.679 18.2842 557.679 17.3955V12.6035H559.34V17.375C559.34 18.3138 559.729 18.7832 560.509 18.7832C561.315 18.7832 561.86 18.4938 562.143 17.915V12.6035H563.804V20H562.238L562.197 19.2754ZM567.263 20H565.602V9.5H567.263V20ZM573.497 20C573.424 19.8587 573.36 19.6286 573.306 19.3096C572.777 19.861 572.13 20.1367 571.364 20.1367C570.621 20.1367 570.015 19.9248 569.546 19.501C569.076 19.0771 568.842 18.5531 568.842 17.9287C568.842 17.1403 569.133 16.5365 569.717 16.1172C570.305 15.6934 571.143 15.4814 572.232 15.4814H573.251V14.9961C573.251 14.6133 573.144 14.3079 572.93 14.0801C572.715 13.8477 572.39 13.7314 571.952 13.7314C571.574 13.7314 571.264 13.8271 571.022 14.0186C570.781 14.2054 570.66 14.4447 570.66 14.7363H568.999C568.999 14.3307 569.133 13.9525 569.402 13.6016C569.671 13.2461 570.036 12.9681 570.496 12.7676C570.961 12.5671 571.478 12.4668 572.048 12.4668C572.914 12.4668 573.604 12.6855 574.119 13.123C574.634 13.556 574.898 14.1667 574.912 14.9551V18.291C574.912 18.9564 575.006 19.4873 575.192 19.8838V20H573.497ZM571.672 18.8037C572 18.8037 572.308 18.724 572.595 18.5645C572.886 18.4049 573.105 18.1908 573.251 17.9219V16.5273H572.355C571.74 16.5273 571.278 16.6344 570.968 16.8486C570.658 17.0628 570.503 17.3659 570.503 17.7578C570.503 18.0768 570.608 18.332 570.817 18.5234C571.032 18.7103 571.316 18.8037 571.672 18.8037ZM579.69 18.8105C580.105 18.8105 580.449 18.6898 580.723 18.4482C580.996 18.2067 581.142 17.9082 581.16 17.5527H582.726C582.707 18.013 582.564 18.4437 582.295 18.8447C582.026 19.2412 581.661 19.5557 581.201 19.7881C580.741 20.0205 580.244 20.1367 579.711 20.1367C578.676 20.1367 577.856 19.8018 577.25 19.1318C576.644 18.4619 576.341 17.5368 576.341 16.3564V16.1855C576.341 15.0599 576.642 14.1598 577.243 13.4854C577.845 12.8063 578.665 12.4668 579.704 12.4668C580.584 12.4668 581.299 12.7243 581.851 13.2393C582.407 13.7497 582.698 14.4219 582.726 15.2559H581.16C581.142 14.832 580.996 14.4834 580.723 14.21C580.454 13.9365 580.11 13.7998 579.69 13.7998C579.153 13.7998 578.738 13.9958 578.446 14.3877C578.155 14.7751 578.007 15.3652 578.002 16.1582V16.4248C578.002 17.2269 578.146 17.8262 578.433 18.2227C578.724 18.6146 579.144 18.8105 579.69 18.8105ZM580.142 20.0137L580.066 20.3828C580.75 20.5059 581.092 20.9001 581.092 21.5654C581.092 22.0439 580.896 22.4176 580.504 22.6865C580.112 22.9554 579.563 23.0898 578.856 23.0898L578.809 22.1533C579.109 22.1533 579.34 22.0986 579.499 21.9893C579.663 21.8844 579.745 21.7363 579.745 21.5449C579.745 21.3398 579.663 21.1963 579.499 21.1143C579.34 21.0368 579.077 20.9867 578.713 20.9639L578.932 20.0137H580.142ZM588.399 20C588.326 19.8587 588.263 19.6286 588.208 19.3096C587.679 19.861 587.032 20.1367 586.267 20.1367C585.524 20.1367 584.918 19.9248 584.448 19.501C583.979 19.0771 583.744 18.5531 583.744 17.9287C583.744 17.1403 584.036 16.5365 584.619 16.1172C585.207 15.6934 586.046 15.4814 587.135 15.4814H588.153V14.9961C588.153 14.6133 588.046 14.3079 587.832 14.0801C587.618 13.8477 587.292 13.7314 586.854 13.7314C586.476 13.7314 586.166 13.8271 585.925 14.0186C585.683 14.2054 585.562 14.4447 585.562 14.7363H583.901C583.901 14.3307 584.036 13.9525 584.305 13.6016C584.574 13.2461 584.938 12.9681 585.398 12.7676C585.863 12.5671 586.381 12.4668 586.95 12.4668C587.816 12.4668 588.507 12.6855 589.021 13.123C589.536 13.556 589.801 14.1667 589.814 14.9551V18.291C589.814 18.9564 589.908 19.4873 590.095 19.8838V20H588.399ZM586.574 18.8037C586.902 18.8037 587.21 18.724 587.497 18.5645C587.789 18.4049 588.007 18.1908 588.153 17.9219V16.5273H587.258C586.643 16.5273 586.18 16.6344 585.87 16.8486C585.56 17.0628 585.405 17.3659 585.405 17.7578C585.405 18.0768 585.51 18.332 585.72 18.5234C585.934 18.7103 586.219 18.8037 586.574 18.8037ZM589.514 9.65039C589.514 10.1517 589.368 10.5687 589.076 10.9014C588.789 11.234 588.427 11.4004 587.989 11.4004C587.812 11.4004 587.657 11.3822 587.524 11.3457C587.397 11.3047 587.212 11.2158 586.971 11.0791C586.734 10.9424 586.565 10.8604 586.465 10.833C586.369 10.8057 586.262 10.792 586.144 10.792C585.97 10.792 585.822 10.8581 585.699 10.9902C585.581 11.1178 585.521 11.2865 585.521 11.4961L584.503 11.4414C584.503 10.9401 584.646 10.5186 584.934 10.1768C585.225 9.83496 585.588 9.66406 586.021 9.66406C586.28 9.66406 586.592 9.7666 586.957 9.97168C587.326 10.1768 587.629 10.2793 587.866 10.2793C588.039 10.2793 588.188 10.2155 588.311 10.0879C588.434 9.95573 588.495 9.78255 588.495 9.56836L589.514 9.65039ZM591.243 16.2334C591.243 15.5088 591.387 14.8571 591.674 14.2783C591.961 13.695 592.364 13.2484 592.884 12.9385C593.403 12.624 594 12.4668 594.675 12.4668C595.673 12.4668 596.482 12.7881 597.102 13.4307C597.726 14.0732 598.063 14.9255 598.113 15.9873L598.12 16.377C598.12 17.1061 597.979 17.7578 597.696 18.332C597.418 18.9062 597.017 19.3506 596.493 19.665C595.974 19.9795 595.372 20.1367 594.688 20.1367C593.645 20.1367 592.809 19.7904 592.18 19.0977C591.555 18.4004 591.243 17.473 591.243 16.3154V16.2334ZM592.904 16.377C592.904 17.138 593.062 17.735 593.376 18.168C593.69 18.5964 594.128 18.8105 594.688 18.8105C595.249 18.8105 595.684 18.5918 595.994 18.1543C596.309 17.7168 596.466 17.0765 596.466 16.2334C596.466 15.486 596.304 14.8936 595.98 14.4561C595.661 14.0186 595.226 13.7998 594.675 13.7998C594.132 13.7998 593.702 14.0163 593.383 14.4492C593.064 14.8776 592.904 15.5202 592.904 16.377Z" fill="#979797"/>
<path d="M159 15.5L200.5 15.5" stroke="#979797"/>
<path d="M373 16L414.5 16" stroke="#979797"/>
<path d="M607 15L648.5 15" stroke="#A4A4A4"/>
<path d="M785 15L826.5 15" stroke="#016EA7"/>
<circle cx="15" cy="16" r="14.5" fill="#016EA7" stroke="#016EA7"/>
<path d="M17.2432 21H15.5889V13.0088L13.1484 13.8428V12.4414L17.0312 11.0127H17.2432V21Z" fill="#FFDD00"/>
<circle cx="224" cy="16" r="14" stroke="#A4A4A4" stroke-width="2"/>
<circle cx="437" cy="15" r="14" stroke="#979797" stroke-width="2"/>
<path d="M435.916 13.7646H436.928C437.438 13.7601 437.841 13.6279 438.138 13.3682C438.438 13.1084 438.589 12.7324 438.589 12.2402C438.589 11.7663 438.464 11.3994 438.213 11.1396C437.967 10.8753 437.589 10.7432 437.078 10.7432C436.632 10.7432 436.265 10.873 435.978 11.1328C435.69 11.388 435.547 11.723 435.547 12.1377H433.886C433.886 11.6273 434.02 11.1624 434.289 10.7432C434.562 10.3239 434.941 9.99805 435.424 9.76562C435.911 9.52865 436.456 9.41016 437.058 9.41016C438.051 9.41016 438.83 9.66081 439.396 10.1621C439.965 10.6589 440.25 11.3516 440.25 12.2402C440.25 12.6868 440.106 13.1084 439.819 13.5049C439.537 13.8968 439.17 14.193 438.719 14.3936C439.266 14.5804 439.68 14.8743 439.963 15.2754C440.25 15.6764 440.394 16.1549 440.394 16.7109C440.394 17.6042 440.086 18.3151 439.471 18.8438C438.86 19.3724 438.056 19.6367 437.058 19.6367C436.101 19.6367 435.317 19.3815 434.706 18.8711C434.095 18.3607 433.79 17.6816 433.79 16.834H435.451C435.451 17.2715 435.597 17.627 435.889 17.9004C436.185 18.1738 436.581 18.3105 437.078 18.3105C437.593 18.3105 437.999 18.1738 438.295 17.9004C438.591 17.627 438.739 17.2305 438.739 16.7109C438.739 16.1868 438.584 15.7835 438.274 15.501C437.965 15.2184 437.504 15.0771 436.894 15.0771H435.916V13.7646Z" fill="#979797"/>
<path d="M697.837 20H696.114V10.0469H697.837V20ZM699.491 16.2471C699.491 15.1077 699.756 14.194 700.284 13.5059C700.813 12.8132 701.521 12.4668 702.41 12.4668C703.194 12.4668 703.827 12.7402 704.311 13.2871V9.5H705.972V20H704.468L704.386 19.2344C703.889 19.8359 703.226 20.1367 702.396 20.1367C701.531 20.1367 700.829 19.7881 700.291 19.0908C699.758 18.3936 699.491 17.4456 699.491 16.2471ZM701.152 16.3906C701.152 17.1426 701.296 17.7305 701.583 18.1543C701.875 18.5736 702.287 18.7832 702.82 18.7832C703.499 18.7832 703.996 18.4801 704.311 17.874V14.7158C704.005 14.1234 703.513 13.8271 702.834 13.8271C702.296 13.8271 701.882 14.0413 701.59 14.4697C701.298 14.8936 701.152 15.5339 701.152 16.3906ZM710.962 20.1367C709.909 20.1367 709.055 19.8063 708.398 19.1455C707.747 18.4801 707.421 17.596 707.421 16.4932V16.2881C707.421 15.5498 707.562 14.8913 707.845 14.3125C708.132 13.7292 708.533 13.2757 709.048 12.9521C709.563 12.6286 710.137 12.4668 710.771 12.4668C711.778 12.4668 712.555 12.7881 713.102 13.4307C713.653 14.0732 713.929 14.9824 713.929 16.1582V16.8281H709.096C709.146 17.4388 709.349 17.9219 709.704 18.2773C710.064 18.6328 710.515 18.8105 711.058 18.8105C711.819 18.8105 712.438 18.5029 712.917 17.8877L713.812 18.7422C713.516 19.1842 713.12 19.5283 712.623 19.7744C712.131 20.016 711.577 20.1367 710.962 20.1367ZM710.764 13.7998C710.308 13.7998 709.939 13.9593 709.656 14.2783C709.378 14.5973 709.201 15.0417 709.123 15.6113H712.288V15.4883C712.252 14.9323 712.104 14.513 711.844 14.2305C711.584 13.9434 711.224 13.7998 710.764 13.7998ZM716.766 12.6035L716.813 13.458C717.36 12.7972 718.078 12.4668 718.967 12.4668C720.507 12.4668 721.291 13.3486 721.318 15.1123V20H719.657V15.208C719.657 14.7386 719.555 14.3923 719.35 14.1689C719.149 13.9411 718.819 13.8271 718.358 13.8271C717.688 13.8271 717.189 14.1302 716.861 14.7363V20H715.2V12.6035H716.766ZM725.099 10.8057V12.6035H726.404V13.834H725.099V17.9629C725.099 18.2454 725.153 18.4505 725.263 18.5781C725.377 18.7012 725.577 18.7627 725.864 18.7627C726.056 18.7627 726.249 18.7399 726.445 18.6943V19.9795C726.067 20.0843 725.702 20.1367 725.352 20.1367C724.076 20.1367 723.438 19.4326 723.438 18.0244V13.834H722.221V12.6035H723.438V10.8057H725.099ZM729.446 20H727.785V12.6035H729.446V20ZM727.683 10.6826C727.683 10.4274 727.762 10.2155 727.922 10.0469C728.086 9.87826 728.318 9.79395 728.619 9.79395C728.92 9.79395 729.152 9.87826 729.316 10.0469C729.48 10.2155 729.562 10.4274 729.562 10.6826C729.562 10.9333 729.48 11.1429 729.316 11.3115C729.152 11.4756 728.92 11.5576 728.619 11.5576C728.318 11.5576 728.086 11.4756 727.922 11.3115C727.762 11.1429 727.683 10.9333 727.683 10.6826ZM731.702 20V13.834H730.574V12.6035H731.702V12.0977C731.707 11.5189 731.83 11.0221 732.071 10.6074C732.313 10.1927 732.655 9.88053 733.097 9.6709C733.539 9.46126 734.07 9.35645 734.689 9.35645C735.054 9.35645 735.403 9.39518 735.735 9.47266C736.073 9.55013 736.421 9.64811 736.781 9.7666L736.528 11.1406C735.899 10.9219 735.325 10.8125 734.806 10.8125C734.3 10.8125 733.933 10.9242 733.705 11.1475C733.477 11.3662 733.363 11.6966 733.363 12.1387V12.6035H734.819V13.834H733.363V20H731.702ZM737.567 20H735.906V12.6035H737.567V20ZM742.448 18.8105C742.863 18.8105 743.207 18.6898 743.48 18.4482C743.754 18.2067 743.9 17.9082 743.918 17.5527H745.483C745.465 18.013 745.322 18.4437 745.053 18.8447C744.784 19.2412 744.419 19.5557 743.959 19.7881C743.499 20.0205 743.002 20.1367 742.469 20.1367C741.434 20.1367 740.614 19.8018 740.008 19.1318C739.402 18.4619 739.099 17.5368 739.099 16.3564V16.1855C739.099 15.0599 739.399 14.1598 740.001 13.4854C740.603 12.8063 741.423 12.4668 742.462 12.4668C743.341 12.4668 744.057 12.7243 744.608 13.2393C745.164 13.7497 745.456 14.4219 745.483 15.2559H743.918C743.9 14.832 743.754 14.4834 743.48 14.21C743.212 13.9365 742.868 13.7998 742.448 13.7998C741.91 13.7998 741.496 13.9958 741.204 14.3877C740.912 14.7751 740.764 15.3652 740.76 16.1582V16.4248C740.76 17.2269 740.903 17.8262 741.19 18.2227C741.482 18.6146 741.901 18.8105 742.448 18.8105ZM751.157 20C751.084 19.8587 751.021 19.6286 750.966 19.3096C750.437 19.861 749.79 20.1367 749.024 20.1367C748.282 20.1367 747.675 19.9248 747.206 19.501C746.737 19.0771 746.502 18.5531 746.502 17.9287C746.502 17.1403 746.794 16.5365 747.377 16.1172C747.965 15.6934 748.803 15.4814 749.893 15.4814H750.911V14.9961C750.911 14.6133 750.804 14.3079 750.59 14.0801C750.376 13.8477 750.05 13.7314 749.612 13.7314C749.234 13.7314 748.924 13.8271 748.683 14.0186C748.441 14.2054 748.32 14.4447 748.32 14.7363H746.659C746.659 14.3307 746.794 13.9525 747.062 13.6016C747.331 13.2461 747.696 12.9681 748.156 12.7676C748.621 12.5671 749.138 12.4668 749.708 12.4668C750.574 12.4668 751.264 12.6855 751.779 13.123C752.294 13.556 752.559 14.1667 752.572 14.9551V18.291C752.572 18.9564 752.666 19.4873 752.853 19.8838V20H751.157ZM749.332 18.8037C749.66 18.8037 749.968 18.724 750.255 18.5645C750.547 18.4049 750.765 18.1908 750.911 17.9219V16.5273H750.016C749.4 16.5273 748.938 16.6344 748.628 16.8486C748.318 17.0628 748.163 17.3659 748.163 17.7578C748.163 18.0768 748.268 18.332 748.478 18.5234C748.692 18.7103 748.977 18.8037 749.332 18.8037ZM757.351 18.8105C757.765 18.8105 758.109 18.6898 758.383 18.4482C758.656 18.2067 758.802 17.9082 758.82 17.5527H760.386C760.368 18.013 760.224 18.4437 759.955 18.8447C759.686 19.2412 759.322 19.5557 758.861 19.7881C758.401 20.0205 757.904 20.1367 757.371 20.1367C756.337 20.1367 755.516 19.8018 754.91 19.1318C754.304 18.4619 754.001 17.5368 754.001 16.3564V16.1855C754.001 15.0599 754.302 14.1598 754.903 13.4854C755.505 12.8063 756.325 12.4668 757.364 12.4668C758.244 12.4668 758.959 12.7243 759.511 13.2393C760.067 13.7497 760.358 14.4219 760.386 15.2559H758.82C758.802 14.832 758.656 14.4834 758.383 14.21C758.114 13.9365 757.77 13.7998 757.351 13.7998C756.813 13.7998 756.398 13.9958 756.106 14.3877C755.815 14.7751 755.667 15.3652 755.662 16.1582V16.4248C755.662 17.2269 755.806 17.8262 756.093 18.2227C756.384 18.6146 756.804 18.8105 757.351 18.8105ZM757.802 20.0137L757.727 20.3828C758.41 20.5059 758.752 20.9001 758.752 21.5654C758.752 22.0439 758.556 22.4176 758.164 22.6865C757.772 22.9554 757.223 23.0898 756.517 23.0898L756.469 22.1533C756.77 22.1533 757 22.0986 757.159 21.9893C757.323 21.8844 757.405 21.7363 757.405 21.5449C757.405 21.3398 757.323 21.1963 757.159 21.1143C757 21.0368 756.738 20.9867 756.373 20.9639L756.592 20.0137H757.802ZM766.06 20C765.987 19.8587 765.923 19.6286 765.868 19.3096C765.34 19.861 764.692 20.1367 763.927 20.1367C763.184 20.1367 762.578 19.9248 762.108 19.501C761.639 19.0771 761.404 18.5531 761.404 17.9287C761.404 17.1403 761.696 16.5365 762.279 16.1172C762.867 15.6934 763.706 15.4814 764.795 15.4814H765.813V14.9961C765.813 14.6133 765.706 14.3079 765.492 14.0801C765.278 13.8477 764.952 13.7314 764.515 13.7314C764.136 13.7314 763.826 13.8271 763.585 14.0186C763.343 14.2054 763.223 14.4447 763.223 14.7363H761.562C761.562 14.3307 761.696 13.9525 761.965 13.6016C762.234 13.2461 762.598 12.9681 763.059 12.7676C763.523 12.5671 764.041 12.4668 764.61 12.4668C765.476 12.4668 766.167 12.6855 766.682 13.123C767.197 13.556 767.461 14.1667 767.475 14.9551V18.291C767.475 18.9564 767.568 19.4873 767.755 19.8838V20H766.06ZM764.234 18.8037C764.562 18.8037 764.87 18.724 765.157 18.5645C765.449 18.4049 765.668 18.1908 765.813 17.9219V16.5273H764.918C764.303 16.5273 763.84 16.6344 763.53 16.8486C763.22 17.0628 763.065 17.3659 763.065 17.7578C763.065 18.0768 763.17 18.332 763.38 18.5234C763.594 18.7103 763.879 18.8037 764.234 18.8037ZM767.174 9.65039C767.174 10.1517 767.028 10.5687 766.736 10.9014C766.449 11.234 766.087 11.4004 765.649 11.4004C765.472 11.4004 765.317 11.3822 765.185 11.3457C765.057 11.3047 764.872 11.2158 764.631 11.0791C764.394 10.9424 764.225 10.8604 764.125 10.833C764.029 10.8057 763.922 10.792 763.804 10.792C763.631 10.792 763.482 10.8581 763.359 10.9902C763.241 11.1178 763.182 11.2865 763.182 11.4961L762.163 11.4414C762.163 10.9401 762.307 10.5186 762.594 10.1768C762.885 9.83496 763.248 9.66406 763.681 9.66406C763.94 9.66406 764.253 9.7666 764.617 9.97168C764.986 10.1768 765.289 10.2793 765.526 10.2793C765.7 10.2793 765.848 10.2155 765.971 10.0879C766.094 9.95573 766.155 9.78255 766.155 9.56836L767.174 9.65039ZM768.903 16.2334C768.903 15.5088 769.047 14.8571 769.334 14.2783C769.621 13.695 770.024 13.2484 770.544 12.9385C771.063 12.624 771.66 12.4668 772.335 12.4668C773.333 12.4668 774.142 12.7881 774.762 13.4307C775.386 14.0732 775.723 14.9255 775.773 15.9873L775.78 16.377C775.78 17.1061 775.639 17.7578 775.356 18.332C775.078 18.9062 774.677 19.3506 774.153 19.665C773.634 19.9795 773.032 20.1367 772.349 20.1367C771.305 20.1367 770.469 19.7904 769.84 19.0977C769.215 18.4004 768.903 17.473 768.903 16.3154V16.2334ZM770.564 16.377C770.564 17.138 770.722 17.735 771.036 18.168C771.351 18.5964 771.788 18.8105 772.349 18.8105C772.909 18.8105 773.344 18.5918 773.654 18.1543C773.969 17.7168 774.126 17.0765 774.126 16.2334C774.126 15.486 773.964 14.8936 773.641 14.4561C773.322 14.0186 772.886 13.7998 772.335 13.7998C771.793 13.7998 771.362 14.0163 771.043 14.4492C770.724 14.8776 770.564 15.5202 770.564 16.377Z" fill="#979797"/>
<circle cx="672" cy="15" r="14" fill="white" stroke="#979797" stroke-width="2"/>
<path d="M674.614 15.9521H675.852V17.2852H674.614V19.5H672.953V17.2852H668.653L668.605 16.2734L672.898 9.54688H674.614V15.9521ZM670.349 15.9521H672.953V11.7959L672.83 12.0146L670.349 15.9521Z" fill="#979797"/>
<path d="M879.747 15.7822H875.741V20H874.012V10.0469H880.335V11.4414H875.741V14.4014H879.747V15.7822ZM883.315 20H881.654V12.6035H883.315V20ZM881.552 10.6826C881.552 10.4274 881.632 10.2155 881.791 10.0469C881.955 9.87826 882.188 9.79395 882.488 9.79395C882.789 9.79395 883.021 9.87826 883.186 10.0469C883.35 10.2155 883.432 10.4274 883.432 10.6826C883.432 10.9333 883.35 11.1429 883.186 11.3115C883.021 11.4756 882.789 11.5576 882.488 11.5576C882.188 11.5576 881.955 11.4756 881.791 11.3115C881.632 11.1429 881.552 10.9333 881.552 10.6826ZM886.672 12.6035L886.72 13.458C887.267 12.7972 887.984 12.4668 888.873 12.4668C890.413 12.4668 891.197 13.3486 891.225 15.1123V20H889.563V15.208C889.563 14.7386 889.461 14.3923 889.256 14.1689C889.055 13.9411 888.725 13.8271 888.265 13.8271C887.595 13.8271 887.096 14.1302 886.768 14.7363V20H885.106V12.6035H886.672ZM897.343 20C897.27 19.8587 897.206 19.6286 897.151 19.3096C896.623 19.861 895.976 20.1367 895.21 20.1367C894.467 20.1367 893.861 19.9248 893.392 19.501C892.922 19.0771 892.688 18.5531 892.688 17.9287C892.688 17.1403 892.979 16.5365 893.562 16.1172C894.15 15.6934 894.989 15.4814 896.078 15.4814H897.097V14.9961C897.097 14.6133 896.99 14.3079 896.775 14.0801C896.561 13.8477 896.235 13.7314 895.798 13.7314C895.42 13.7314 895.11 13.8271 894.868 14.0186C894.627 14.2054 894.506 14.4447 894.506 14.7363H892.845C892.845 14.3307 892.979 13.9525 893.248 13.6016C893.517 13.2461 893.882 12.9681 894.342 12.7676C894.807 12.5671 895.324 12.4668 895.894 12.4668C896.759 12.4668 897.45 12.6855 897.965 13.123C898.48 13.556 898.744 14.1667 898.758 14.9551V18.291C898.758 18.9564 898.851 19.4873 899.038 19.8838V20H897.343ZM895.518 18.8037C895.846 18.8037 896.153 18.724 896.44 18.5645C896.732 18.4049 896.951 18.1908 897.097 17.9219V16.5273H896.201C895.586 16.5273 895.123 16.6344 894.813 16.8486C894.504 17.0628 894.349 17.3659 894.349 17.7578C894.349 18.0768 894.453 18.332 894.663 18.5234C894.877 18.7103 895.162 18.8037 895.518 18.8037ZM902.265 20H900.604V9.5H902.265V20ZM905.847 20H904.186V12.6035H905.847V20ZM904.083 10.6826C904.083 10.4274 904.163 10.2155 904.322 10.0469C904.486 9.87826 904.719 9.79395 905.02 9.79395C905.32 9.79395 905.553 9.87826 905.717 10.0469C905.881 10.2155 905.963 10.4274 905.963 10.6826C905.963 10.9333 905.881 11.1429 905.717 11.3115C905.553 11.4756 905.32 11.5576 905.02 11.5576C904.719 11.5576 904.486 11.4756 904.322 11.3115C904.163 11.1429 904.083 10.9333 904.083 10.6826ZM909.436 18.6738H913.373V20H907.371V18.9131L911.124 13.9434H907.439V12.6035H913.229V13.6562L909.436 18.6738ZM919.122 20C919.049 19.8587 918.985 19.6286 918.931 19.3096C918.402 19.861 917.755 20.1367 916.989 20.1367C916.246 20.1367 915.64 19.9248 915.171 19.501C914.701 19.0771 914.467 18.5531 914.467 17.9287C914.467 17.1403 914.758 16.5365 915.342 16.1172C915.93 15.6934 916.768 15.4814 917.857 15.4814H918.876V14.9961C918.876 14.6133 918.769 14.3079 918.555 14.0801C918.34 13.8477 918.015 13.7314 917.577 13.7314C917.199 13.7314 916.889 13.8271 916.647 14.0186C916.406 14.2054 916.285 14.4447 916.285 14.7363H914.624C914.624 14.3307 914.758 13.9525 915.027 13.6016C915.296 13.2461 915.661 12.9681 916.121 12.7676C916.586 12.5671 917.103 12.4668 917.673 12.4668C918.539 12.4668 919.229 12.6855 919.744 13.123C920.259 13.556 920.523 14.1667 920.537 14.9551V18.291C920.537 18.9564 920.631 19.4873 920.817 19.8838V20H919.122ZM917.297 18.8037C917.625 18.8037 917.933 18.724 918.22 18.5645C918.511 18.4049 918.73 18.1908 918.876 17.9219V16.5273H917.98C917.365 16.5273 916.903 16.6344 916.593 16.8486C916.283 17.0628 916.128 17.3659 916.128 17.7578C916.128 18.0768 916.233 18.332 916.442 18.5234C916.657 18.7103 916.941 18.8037 917.297 18.8037ZM925.315 18.8105C925.73 18.8105 926.074 18.6898 926.348 18.4482C926.621 18.2067 926.767 17.9082 926.785 17.5527H928.351C928.332 18.013 928.189 18.4437 927.92 18.8447C927.651 19.2412 927.286 19.5557 926.826 19.7881C926.366 20.0205 925.869 20.1367 925.336 20.1367C924.301 20.1367 923.481 19.8018 922.875 19.1318C922.269 18.4619 921.966 17.5368 921.966 16.3564V16.1855C921.966 15.0599 922.267 14.1598 922.868 13.4854C923.47 12.8063 924.29 12.4668 925.329 12.4668C926.209 12.4668 926.924 12.7243 927.476 13.2393C928.032 13.7497 928.323 14.4219 928.351 15.2559H926.785C926.767 14.832 926.621 14.4834 926.348 14.21C926.079 13.9365 925.735 13.7998 925.315 13.7998C924.778 13.7998 924.363 13.9958 924.071 14.3877C923.78 14.7751 923.632 15.3652 923.627 16.1582V16.4248C923.627 17.2269 923.771 17.8262 924.058 18.2227C924.349 18.6146 924.769 18.8105 925.315 18.8105ZM925.767 20.0137L925.691 20.3828C926.375 20.5059 926.717 20.9001 926.717 21.5654C926.717 22.0439 926.521 22.4176 926.129 22.6865C925.737 22.9554 925.188 23.0898 924.481 23.0898L924.434 22.1533C924.734 22.1533 924.965 22.0986 925.124 21.9893C925.288 21.8844 925.37 21.7363 925.37 21.5449C925.37 21.3398 925.288 21.1963 925.124 21.1143C924.965 21.0368 924.702 20.9867 924.338 20.9639L924.557 20.0137H925.767ZM934.024 20C933.951 19.8587 933.888 19.6286 933.833 19.3096C933.304 19.861 932.657 20.1367 931.892 20.1367C931.149 20.1367 930.543 19.9248 930.073 19.501C929.604 19.0771 929.369 18.5531 929.369 17.9287C929.369 17.1403 929.661 16.5365 930.244 16.1172C930.832 15.6934 931.671 15.4814 932.76 15.4814H933.778V14.9961C933.778 14.6133 933.671 14.3079 933.457 14.0801C933.243 13.8477 932.917 13.7314 932.479 13.7314C932.101 13.7314 931.791 13.8271 931.55 14.0186C931.308 14.2054 931.188 14.4447 931.188 14.7363H929.526C929.526 14.3307 929.661 13.9525 929.93 13.6016C930.199 13.2461 930.563 12.9681 931.023 12.7676C931.488 12.5671 932.006 12.4668 932.575 12.4668C933.441 12.4668 934.132 12.6855 934.646 13.123C935.161 13.556 935.426 14.1667 935.439 14.9551V18.291C935.439 18.9564 935.533 19.4873 935.72 19.8838V20H934.024ZM932.199 18.8037C932.527 18.8037 932.835 18.724 933.122 18.5645C933.414 18.4049 933.632 18.1908 933.778 17.9219V16.5273H932.883C932.268 16.5273 931.805 16.6344 931.495 16.8486C931.185 17.0628 931.03 17.3659 931.03 17.7578C931.03 18.0768 931.135 18.332 931.345 18.5234C931.559 18.7103 931.844 18.8037 932.199 18.8037ZM935.139 9.65039C935.139 10.1517 934.993 10.5687 934.701 10.9014C934.414 11.234 934.052 11.4004 933.614 11.4004C933.437 11.4004 933.282 11.3822 933.149 11.3457C933.022 11.3047 932.837 11.2158 932.596 11.0791C932.359 10.9424 932.19 10.8604 932.09 10.833C931.994 10.8057 931.887 10.792 931.769 10.792C931.595 10.792 931.447 10.8581 931.324 10.9902C931.206 11.1178 931.146 11.2865 931.146 11.4961L930.128 11.4414C930.128 10.9401 930.271 10.5186 930.559 10.1768C930.85 9.83496 931.213 9.66406 931.646 9.66406C931.905 9.66406 932.217 9.7666 932.582 9.97168C932.951 10.1768 933.254 10.2793 933.491 10.2793C933.664 10.2793 933.812 10.2155 933.936 10.0879C934.059 9.95573 934.12 9.78255 934.12 9.56836L935.139 9.65039ZM936.868 16.2334C936.868 15.5088 937.012 14.8571 937.299 14.2783C937.586 13.695 937.989 13.2484 938.509 12.9385C939.028 12.624 939.625 12.4668 940.3 12.4668C941.298 12.4668 942.107 12.7881 942.727 13.4307C943.351 14.0732 943.688 14.9255 943.738 15.9873L943.745 16.377C943.745 17.1061 943.604 17.7578 943.321 18.332C943.043 18.9062 942.642 19.3506 942.118 19.665C941.599 19.9795 940.997 20.1367 940.313 20.1367C939.27 20.1367 938.434 19.7904 937.805 19.0977C937.18 18.4004 936.868 17.473 936.868 16.3154V16.2334ZM938.529 16.377C938.529 17.138 938.687 17.735 939.001 18.168C939.315 18.5964 939.753 18.8105 940.313 18.8105C940.874 18.8105 941.309 18.5918 941.619 18.1543C941.934 17.7168 942.091 17.0765 942.091 16.2334C942.091 15.486 941.929 14.8936 941.605 14.4561C941.286 14.0186 940.851 13.7998 940.3 13.7998C939.757 13.7998 939.327 14.0163 939.008 14.4492C938.689 14.8776 938.529 15.5202 938.529 16.377ZM948.325 16.2471C948.325 15.1077 948.59 14.194 949.118 13.5059C949.647 12.8132 950.355 12.4668 951.244 12.4668C952.028 12.4668 952.661 12.7402 953.145 13.2871V9.5H954.806V20H953.302L953.22 19.2344C952.723 19.8359 952.06 20.1367 951.23 20.1367C950.365 20.1367 949.663 19.7881 949.125 19.0908C948.592 18.3936 948.325 17.4456 948.325 16.2471ZM949.986 16.3906C949.986 17.1426 950.13 17.7305 950.417 18.1543C950.709 18.5736 951.121 18.7832 951.654 18.7832C952.333 18.7832 952.83 18.4801 953.145 17.874V14.7158C952.839 14.1234 952.347 13.8271 951.668 13.8271C951.13 13.8271 950.715 14.0413 950.424 14.4697C950.132 14.8936 949.986 15.5339 949.986 16.3906ZM959.796 20.1367C958.743 20.1367 957.889 19.8063 957.232 19.1455C956.581 18.4801 956.255 17.596 956.255 16.4932V16.2881C956.255 15.5498 956.396 14.8913 956.679 14.3125C956.966 13.7292 957.367 13.2757 957.882 12.9521C958.397 12.6286 958.971 12.4668 959.604 12.4668C960.612 12.4668 961.389 12.7881 961.936 13.4307C962.487 14.0732 962.763 14.9824 962.763 16.1582V16.8281H957.93C957.98 17.4388 958.183 17.9219 958.538 18.2773C958.898 18.6328 959.349 18.8105 959.892 18.8105C960.653 18.8105 961.272 18.5029 961.751 17.8877L962.646 18.7422C962.35 19.1842 961.954 19.5283 961.457 19.7744C960.965 20.016 960.411 20.1367 959.796 20.1367ZM959.598 13.7998C959.142 13.7998 958.773 13.9593 958.49 14.2783C958.212 14.5973 958.035 15.0417 957.957 15.6113H961.122V15.4883C961.086 14.9323 960.938 14.513 960.678 14.2305C960.418 13.9434 960.058 13.7998 959.598 13.7998ZM971.417 14.1211C971.198 14.0846 970.973 14.0664 970.74 14.0664C969.979 14.0664 969.466 14.3581 969.202 14.9414V20H967.541V12.6035H969.127L969.168 13.4307C969.569 12.7881 970.125 12.4668 970.836 12.4668C971.073 12.4668 971.269 12.4987 971.424 12.5625L971.417 14.1211ZM975.587 20.1367C974.534 20.1367 973.68 19.8063 973.023 19.1455C972.372 18.4801 972.046 17.596 972.046 16.4932V16.2881C972.046 15.5498 972.187 14.8913 972.47 14.3125C972.757 13.7292 973.158 13.2757 973.673 12.9521C974.188 12.6286 974.762 12.4668 975.396 12.4668C976.403 12.4668 977.18 12.7881 977.727 13.4307C978.278 14.0732 978.554 14.9824 978.554 16.1582V16.8281H973.721C973.771 17.4388 973.974 17.9219 974.329 18.2773C974.689 18.6328 975.14 18.8105 975.683 18.8105C976.444 18.8105 977.063 18.5029 977.542 17.8877L978.438 18.7422C978.141 19.1842 977.745 19.5283 977.248 19.7744C976.756 20.016 976.202 20.1367 975.587 20.1367ZM975.389 13.7998C974.933 13.7998 974.564 13.9593 974.281 14.2783C974.003 14.5973 973.826 15.0417 973.748 15.6113H976.913V15.4883C976.877 14.9323 976.729 14.513 976.469 14.2305C976.209 13.9434 975.849 13.7998 975.389 13.7998ZM983.995 17.9902C983.995 17.694 983.872 17.4684 983.626 17.3135C983.384 17.1585 982.981 17.0218 982.416 16.9033C981.851 16.7848 981.379 16.6344 981.001 16.4521C980.172 16.0511 979.757 15.4701 979.757 14.709C979.757 14.071 980.026 13.5378 980.563 13.1094C981.101 12.681 981.785 12.4668 982.614 12.4668C983.498 12.4668 984.212 12.6855 984.754 13.123C985.301 13.5605 985.574 14.1279 985.574 14.8252H983.913C983.913 14.5062 983.795 14.2419 983.558 14.0322C983.321 13.818 983.006 13.7109 982.614 13.7109C982.25 13.7109 981.951 13.7952 981.719 13.9639C981.491 14.1325 981.377 14.3581 981.377 14.6406C981.377 14.8958 981.484 15.0941 981.698 15.2354C981.912 15.3766 982.345 15.5202 982.997 15.666C983.649 15.8073 984.159 15.9782 984.528 16.1787C984.902 16.3747 985.178 16.6117 985.355 16.8896C985.538 17.1676 985.629 17.5049 985.629 17.9014C985.629 18.5667 985.353 19.1068 984.802 19.5215C984.25 19.9316 983.528 20.1367 982.635 20.1367C982.029 20.1367 981.489 20.0273 981.015 19.8086C980.541 19.5898 980.172 19.2891 979.907 18.9062C979.643 18.5234 979.511 18.111 979.511 17.6689H981.124C981.147 18.0609 981.295 18.3639 981.568 18.5781C981.842 18.7878 982.204 18.8926 982.655 18.8926C983.093 18.8926 983.425 18.8105 983.653 18.6465C983.881 18.4779 983.995 18.2591 983.995 17.9902ZM990.339 20.1367C989.286 20.1367 988.432 19.8063 987.775 19.1455C987.124 18.4801 986.798 17.596 986.798 16.4932V16.2881C986.798 15.5498 986.939 14.8913 987.222 14.3125C987.509 13.7292 987.91 13.2757 988.425 12.9521C988.94 12.6286 989.514 12.4668 990.147 12.4668C991.155 12.4668 991.932 12.7881 992.479 13.4307C993.03 14.0732 993.306 14.9824 993.306 16.1582V16.8281H988.473C988.523 17.4388 988.726 17.9219 989.081 18.2773C989.441 18.6328 989.892 18.8105 990.435 18.8105C991.196 18.8105 991.815 18.5029 992.294 17.8877L993.189 18.7422C992.893 19.1842 992.497 19.5283 992 19.7744C991.508 20.016 990.954 20.1367 990.339 20.1367ZM990.141 13.7998C989.685 13.7998 989.316 13.9593 989.033 14.2783C988.755 14.5973 988.577 15.0417 988.5 15.6113H991.665V15.4883C991.629 14.9323 991.48 14.513 991.221 14.2305C990.961 13.9434 990.601 13.7998 990.141 13.7998ZM998.474 14.1211C998.255 14.0846 998.029 14.0664 997.797 14.0664C997.036 14.0664 996.523 14.3581 996.259 14.9414V20H994.598V12.6035H996.184L996.225 13.4307C996.626 12.7881 997.182 12.4668 997.893 12.4668C998.13 12.4668 998.326 12.4987 998.48 12.5625L998.474 14.1211ZM1002.25 17.8945L1003.82 12.6035H1005.54L1002.97 20H1001.53L998.945 12.6035H1000.67L1002.25 17.8945ZM1010.89 20C1010.81 19.8587 1010.75 19.6286 1010.7 19.3096C1010.17 19.861 1009.52 20.1367 1008.75 20.1367C1008.01 20.1367 1007.41 19.9248 1006.94 19.501C1006.47 19.0771 1006.23 18.5531 1006.23 17.9287C1006.23 17.1403 1006.52 16.5365 1007.11 16.1172C1007.7 15.6934 1008.53 15.4814 1009.62 15.4814H1010.64V14.9961C1010.64 14.6133 1010.53 14.3079 1010.32 14.0801C1010.11 13.8477 1009.78 13.7314 1009.34 13.7314C1008.96 13.7314 1008.65 13.8271 1008.41 14.0186C1008.17 14.2054 1008.05 14.4447 1008.05 14.7363H1006.39C1006.39 14.3307 1006.52 13.9525 1006.79 13.6016C1007.06 13.2461 1007.43 12.9681 1007.89 12.7676C1008.35 12.5671 1008.87 12.4668 1009.44 12.4668C1010.3 12.4668 1010.99 12.6855 1011.51 13.123C1012.02 13.556 1012.29 14.1667 1012.3 14.9551V18.291C1012.3 18.9564 1012.4 19.4873 1012.58 19.8838V20H1010.89ZM1009.06 18.8037C1009.39 18.8037 1009.7 18.724 1009.99 18.5645C1010.28 18.4049 1010.5 18.1908 1010.64 17.9219V16.5273H1009.75C1009.13 16.5273 1008.67 16.6344 1008.36 16.8486C1008.05 17.0628 1007.89 17.3659 1007.89 17.7578C1007.89 18.0768 1008 18.332 1008.21 18.5234C1008.42 18.7103 1008.71 18.8037 1009.06 18.8037Z" fill="#979797"/>
</svg>
