<svg width="128" height="32" viewBox="0 0 128 32" fill="none" xmlns="http://www.w3.org/2000/svg">
<rect width="128" height="32" rx="4" fill="#005B9E"/>
<path d="M17.2734 14.3594V16.2188C17.2734 17.1094 17.1849 17.8698 17.0078 18.5C16.8359 19.125 16.5859 19.6328 16.2578 20.0234C15.9297 20.4141 15.5365 20.7005 15.0781 20.8828C14.625 21.0651 14.1172 21.1562 13.5547 21.1562C13.1068 21.1562 12.6901 21.099 12.3047 20.9844C11.9245 20.8698 11.5807 20.6901 11.2734 20.4453C10.9661 20.2005 10.7031 19.8854 10.4844 19.5C10.2708 19.1094 10.1042 18.6432 9.98438 18.1016C9.86979 17.5599 9.8125 16.9323 9.8125 16.2188V14.3594C9.8125 13.4635 9.90104 12.7083 10.0781 12.0938C10.2552 11.474 10.5078 10.9714 10.8359 10.5859C11.1641 10.1953 11.5547 9.91146 12.0078 9.73438C12.4661 9.55729 12.9766 9.46875 13.5391 9.46875C13.9922 9.46875 14.4089 9.52604 14.7891 9.64062C15.1745 9.75 15.5182 9.92448 15.8203 10.1641C16.1276 10.4036 16.388 10.7161 16.6016 11.1016C16.8203 11.4818 16.987 11.9427 17.1016 12.4844C17.2161 13.0208 17.2734 13.6458 17.2734 14.3594ZM15.3906 16.4844V14.0781C15.3906 13.625 15.3646 13.2266 15.3125 12.8828C15.2604 12.5339 15.1823 12.2396 15.0781 12C14.9792 11.7552 14.8542 11.5573 14.7031 11.4062C14.5521 11.25 14.3802 11.138 14.1875 11.0703C13.9948 10.9974 13.7786 10.9609 13.5391 10.9609C13.2474 10.9609 12.987 11.0182 12.7578 11.1328C12.5286 11.2422 12.3359 11.4193 12.1797 11.6641C12.0234 11.9089 11.9036 12.2318 11.8203 12.6328C11.7422 13.0286 11.7031 13.5104 11.7031 14.0781V16.4844C11.7031 16.9427 11.7292 17.3464 11.7812 17.6953C11.8333 18.0443 11.9115 18.3438 12.0156 18.5938C12.1198 18.8385 12.2448 19.0417 12.3906 19.2031C12.5417 19.3594 12.7135 19.474 12.9062 19.5469C13.1042 19.6198 13.3203 19.6562 13.5547 19.6562C13.8516 19.6562 14.1146 19.599 14.3438 19.4844C14.5729 19.3698 14.7656 19.1875 14.9219 18.9375C15.0781 18.6823 15.1953 18.3516 15.2734 17.9453C15.3516 17.5391 15.3906 17.0521 15.3906 16.4844ZM26.3906 17.8984C26.3906 18.6068 26.2266 19.2031 25.8984 19.6875C25.5703 20.1719 25.1224 20.5391 24.5547 20.7891C23.9922 21.0339 23.3568 21.1562 22.6484 21.1562C21.9401 21.1562 21.3021 21.0339 20.7344 20.7891C20.1667 20.5391 19.7188 20.1719 19.3906 19.6875C19.0625 19.2031 18.8984 18.6068 18.8984 17.8984C18.8984 17.4297 18.9896 17.0052 19.1719 16.625C19.3542 16.2396 19.612 15.9089 19.9453 15.6328C20.2839 15.3516 20.6797 15.1354 21.1328 14.9844C21.5911 14.8333 22.0911 14.7578 22.6328 14.7578C23.3516 14.7578 23.9948 14.8906 24.5625 15.1562C25.1302 15.4219 25.5755 15.7891 25.8984 16.2578C26.2266 16.7266 26.3906 17.2734 26.3906 17.8984ZM24.5 17.8047C24.5 17.4245 24.4219 17.0911 24.2656 16.8047C24.1094 16.5182 23.8906 16.2969 23.6094 16.1406C23.3281 15.9844 23.0026 15.9062 22.6328 15.9062C22.2578 15.9062 21.9323 15.9844 21.6562 16.1406C21.3802 16.2969 21.1641 16.5182 21.0078 16.8047C20.8568 17.0911 20.7812 17.4245 20.7812 17.8047C20.7812 18.1901 20.8568 18.5234 21.0078 18.8047C21.1589 19.0807 21.375 19.2917 21.6562 19.4375C21.9375 19.5833 22.2682 19.6562 22.6484 19.6562C23.0286 19.6562 23.3568 19.5833 23.6328 19.4375C23.9089 19.2917 24.1224 19.0807 24.2734 18.8047C24.4245 18.5234 24.5 18.1901 24.5 17.8047ZM26.1328 12.6172C26.1328 13.1849 25.9818 13.6901 25.6797 14.1328C25.3828 14.5755 24.9714 14.9245 24.4453 15.1797C23.9193 15.4297 23.3203 15.5547 22.6484 15.5547C21.9714 15.5547 21.3672 15.4297 20.8359 15.1797C20.3099 14.9245 19.8958 14.5755 19.5938 14.1328C19.2969 13.6901 19.1484 13.1849 19.1484 12.6172C19.1484 11.9401 19.2969 11.3698 19.5938 10.9062C19.8958 10.4375 20.3099 10.0807 20.8359 9.83594C21.362 9.59115 21.9635 9.46875 22.6406 9.46875C23.3177 9.46875 23.9193 9.59115 24.4453 9.83594C24.9714 10.0807 25.3828 10.4375 25.6797 10.9062C25.9818 11.3698 26.1328 11.9401 26.1328 12.6172ZM24.25 12.6797C24.25 12.3411 24.1823 12.0443 24.0469 11.7891C23.9167 11.5286 23.7318 11.3255 23.4922 11.1797C23.2526 11.0339 22.9688 10.9609 22.6406 10.9609C22.3125 10.9609 22.0286 11.0312 21.7891 11.1719C21.5495 11.3125 21.3646 11.5104 21.2344 11.7656C21.1042 12.0208 21.0391 12.3255 21.0391 12.6797C21.0391 13.0286 21.1042 13.3333 21.2344 13.5938C21.3646 13.849 21.5495 14.0495 21.7891 14.1953C22.0339 14.3411 22.3203 14.4141 22.6484 14.4141C22.9766 14.4141 23.2604 14.3411 23.5 14.1953C23.7396 14.0495 23.9245 13.849 24.0547 13.5938C24.1849 13.3333 24.25 13.0286 24.25 12.6797ZM35.4609 14.3594V16.2188C35.4609 17.1094 35.3724 17.8698 35.1953 18.5C35.0234 19.125 34.7734 19.6328 34.4453 20.0234C34.1172 20.4141 33.724 20.7005 33.2656 20.8828C32.8125 21.0651 32.3047 21.1562 31.7422 21.1562C31.2943 21.1562 30.8776 21.099 30.4922 20.9844C30.112 20.8698 29.7682 20.6901 29.4609 20.4453C29.1536 20.2005 28.8906 19.8854 28.6719 19.5C28.4583 19.1094 28.2917 18.6432 28.1719 18.1016C28.0573 17.5599 28 16.9323 28 16.2188V14.3594C28 13.4635 28.0885 12.7083 28.2656 12.0938C28.4427 11.474 28.6953 10.9714 29.0234 10.5859C29.3516 10.1953 29.7422 9.91146 30.1953 9.73438C30.6536 9.55729 31.1641 9.46875 31.7266 9.46875C32.1797 9.46875 32.5964 9.52604 32.9766 9.64062C33.362 9.75 33.7057 9.92448 34.0078 10.1641C34.3151 10.4036 34.5755 10.7161 34.7891 11.1016C35.0078 11.4818 35.1745 11.9427 35.2891 12.4844C35.4036 13.0208 35.4609 13.6458 35.4609 14.3594ZM33.5781 16.4844V14.0781C33.5781 13.625 33.5521 13.2266 33.5 12.8828C33.4479 12.5339 33.3698 12.2396 33.2656 12C33.1667 11.7552 33.0417 11.5573 32.8906 11.4062C32.7396 11.25 32.5677 11.138 32.375 11.0703C32.1823 10.9974 31.9661 10.9609 31.7266 10.9609C31.4349 10.9609 31.1745 11.0182 30.9453 11.1328C30.7161 11.2422 30.5234 11.4193 30.3672 11.6641C30.2109 11.9089 30.0911 12.2318 30.0078 12.6328C29.9297 13.0286 29.8906 13.5104 29.8906 14.0781V16.4844C29.8906 16.9427 29.9167 17.3464 29.9688 17.6953C30.0208 18.0443 30.099 18.3438 30.2031 18.5938C30.3073 18.8385 30.4323 19.0417 30.5781 19.2031C30.7292 19.3594 30.901 19.474 31.0938 19.5469C31.2917 19.6198 31.5078 19.6562 31.7422 19.6562C32.0391 19.6562 32.3021 19.599 32.5312 19.4844C32.7604 19.3698 32.9531 19.1875 33.1094 18.9375C33.2656 18.6823 33.3828 18.3516 33.4609 17.9453C33.5391 17.5391 33.5781 17.0521 33.5781 16.4844ZM44.5547 14.3594V16.2188C44.5547 17.1094 44.4661 17.8698 44.2891 18.5C44.1172 19.125 43.8672 19.6328 43.5391 20.0234C43.2109 20.4141 42.8177 20.7005 42.3594 20.8828C41.9062 21.0651 41.3984 21.1562 40.8359 21.1562C40.388 21.1562 39.9714 21.099 39.5859 20.9844C39.2057 20.8698 38.862 20.6901 38.5547 20.4453C38.2474 20.2005 37.9844 19.8854 37.7656 19.5C37.5521 19.1094 37.3854 18.6432 37.2656 18.1016C37.151 17.5599 37.0938 16.9323 37.0938 16.2188V14.3594C37.0938 13.4635 37.1823 12.7083 37.3594 12.0938C37.5365 11.474 37.7891 10.9714 38.1172 10.5859C38.4453 10.1953 38.8359 9.91146 39.2891 9.73438C39.7474 9.55729 40.2578 9.46875 40.8203 9.46875C41.2734 9.46875 41.6901 9.52604 42.0703 9.64062C42.4557 9.75 42.7995 9.92448 43.1016 10.1641C43.4089 10.4036 43.6693 10.7161 43.8828 11.1016C44.1016 11.4818 44.2682 11.9427 44.3828 12.4844C44.4974 13.0208 44.5547 13.6458 44.5547 14.3594ZM42.6719 16.4844V14.0781C42.6719 13.625 42.6458 13.2266 42.5938 12.8828C42.5417 12.5339 42.4635 12.2396 42.3594 12C42.2604 11.7552 42.1354 11.5573 41.9844 11.4062C41.8333 11.25 41.6615 11.138 41.4688 11.0703C41.276 10.9974 41.0599 10.9609 40.8203 10.9609C40.5286 10.9609 40.2682 11.0182 40.0391 11.1328C39.8099 11.2422 39.6172 11.4193 39.4609 11.6641C39.3047 11.9089 39.1849 12.2318 39.1016 12.6328C39.0234 13.0286 38.9844 13.5104 38.9844 14.0781V16.4844C38.9844 16.9427 39.0104 17.3464 39.0625 17.6953C39.1146 18.0443 39.1927 18.3438 39.2969 18.5938C39.401 18.8385 39.526 19.0417 39.6719 19.2031C39.8229 19.3594 39.9948 19.474 40.1875 19.5469C40.3854 19.6198 40.6016 19.6562 40.8359 19.6562C41.1328 19.6562 41.3958 19.599 41.625 19.4844C41.8542 19.3698 42.0469 19.1875 42.2031 18.9375C42.3594 18.6823 42.4766 18.3516 42.5547 17.9453C42.6328 17.5391 42.6719 17.0521 42.6719 16.4844ZM57.7734 9.625V10.6562L53.2266 21H51.2422L55.7812 11.125H49.8906V9.625H57.7734ZM66.8672 9.625V10.6562L62.3203 21H60.3359L64.875 11.125H58.9844V9.625H66.8672ZM73.5469 9.58594V21H71.6641V11.8203L68.875 12.7656V11.2109L73.3203 9.58594H73.5469ZM83.4609 15.7109L81.9609 15.3438L82.5781 9.625H88.7109V11.2188H84.1406L83.8281 14.0078C84.0052 13.9036 84.25 13.8021 84.5625 13.7031C84.875 13.599 85.2318 13.5469 85.6328 13.5469C86.1693 13.5469 86.6484 13.6354 87.0703 13.8125C87.4974 13.9844 87.8594 14.237 88.1562 14.5703C88.4531 14.8984 88.6797 15.2995 88.8359 15.7734C88.9922 16.2422 89.0703 16.7708 89.0703 17.3594C89.0703 17.8854 88.9922 18.3776 88.8359 18.8359C88.6849 19.2943 88.4557 19.6979 88.1484 20.0469C87.8411 20.3958 87.4531 20.6693 86.9844 20.8672C86.5208 21.0599 85.9714 21.1562 85.3359 21.1562C84.862 21.1562 84.4062 21.0885 83.9688 20.9531C83.5365 20.8125 83.1484 20.6068 82.8047 20.3359C82.4609 20.0599 82.1849 19.7214 81.9766 19.3203C81.7682 18.9141 81.6484 18.4479 81.6172 17.9219H83.4609C83.5078 18.2917 83.6094 18.6068 83.7656 18.8672C83.9271 19.1224 84.1406 19.3177 84.4062 19.4531C84.6719 19.5885 84.9792 19.6562 85.3281 19.6562C85.6458 19.6562 85.9193 19.6016 86.1484 19.4922C86.3776 19.3776 86.5677 19.2161 86.7188 19.0078C86.875 18.7943 86.9896 18.5443 87.0625 18.2578C87.1406 17.9714 87.1797 17.6536 87.1797 17.3047C87.1797 16.9714 87.1354 16.6667 87.0469 16.3906C86.9635 16.1146 86.8359 15.875 86.6641 15.6719C86.4974 15.4688 86.2865 15.3125 86.0312 15.2031C85.776 15.0885 85.4818 15.0312 85.1484 15.0312C84.7005 15.0312 84.3568 15.0964 84.1172 15.2266C83.8828 15.3568 83.6641 15.5182 83.4609 15.7109ZM95.7188 9.58594V21H93.8359V11.8203L91.0469 12.7656V11.2109L95.4922 9.58594H95.7188ZM101.648 15.7109L100.148 15.3438L100.766 9.625H106.898V11.2188H102.328L102.016 14.0078C102.193 13.9036 102.438 13.8021 102.75 13.7031C103.062 13.599 103.419 13.5469 103.82 13.5469C104.357 13.5469 104.836 13.6354 105.258 13.8125C105.685 13.9844 106.047 14.237 106.344 14.5703C106.641 14.8984 106.867 15.2995 107.023 15.7734C107.18 16.2422 107.258 16.7708 107.258 17.3594C107.258 17.8854 107.18 18.3776 107.023 18.8359C106.872 19.2943 106.643 19.6979 106.336 20.0469C106.029 20.3958 105.641 20.6693 105.172 20.8672C104.708 21.0599 104.159 21.1562 103.523 21.1562C103.049 21.1562 102.594 21.0885 102.156 20.9531C101.724 20.8125 101.336 20.6068 100.992 20.3359C100.648 20.0599 100.372 19.7214 100.164 19.3203C99.9557 18.9141 99.8359 18.4479 99.8047 17.9219H101.648C101.695 18.2917 101.797 18.6068 101.953 18.8672C102.115 19.1224 102.328 19.3177 102.594 19.4531C102.859 19.5885 103.167 19.6562 103.516 19.6562C103.833 19.6562 104.107 19.6016 104.336 19.4922C104.565 19.3776 104.755 19.2161 104.906 19.0078C105.062 18.7943 105.177 18.5443 105.25 18.2578C105.328 17.9714 105.367 17.6536 105.367 17.3047C105.367 16.9714 105.323 16.6667 105.234 16.3906C105.151 16.1146 105.023 15.875 104.852 15.6719C104.685 15.4688 104.474 15.3125 104.219 15.2031C103.964 15.0885 103.669 15.0312 103.336 15.0312C102.888 15.0312 102.544 15.0964 102.305 15.2266C102.07 15.3568 101.852 15.5182 101.648 15.7109ZM116.203 17.8984C116.203 18.6068 116.039 19.2031 115.711 19.6875C115.383 20.1719 114.935 20.5391 114.367 20.7891C113.805 21.0339 113.169 21.1562 112.461 21.1562C111.753 21.1562 111.115 21.0339 110.547 20.7891C109.979 20.5391 109.531 20.1719 109.203 19.6875C108.875 19.2031 108.711 18.6068 108.711 17.8984C108.711 17.4297 108.802 17.0052 108.984 16.625C109.167 16.2396 109.424 15.9089 109.758 15.6328C110.096 15.3516 110.492 15.1354 110.945 14.9844C111.404 14.8333 111.904 14.7578 112.445 14.7578C113.164 14.7578 113.807 14.8906 114.375 15.1562C114.943 15.4219 115.388 15.7891 115.711 16.2578C116.039 16.7266 116.203 17.2734 116.203 17.8984ZM114.312 17.8047C114.312 17.4245 114.234 17.0911 114.078 16.8047C113.922 16.5182 113.703 16.2969 113.422 16.1406C113.141 15.9844 112.815 15.9062 112.445 15.9062C112.07 15.9062 111.745 15.9844 111.469 16.1406C111.193 16.2969 110.977 16.5182 110.82 16.8047C110.669 17.0911 110.594 17.4245 110.594 17.8047C110.594 18.1901 110.669 18.5234 110.82 18.8047C110.971 19.0807 111.188 19.2917 111.469 19.4375C111.75 19.5833 112.081 19.6562 112.461 19.6562C112.841 19.6562 113.169 19.5833 113.445 19.4375C113.721 19.2917 113.935 19.0807 114.086 18.8047C114.237 18.5234 114.312 18.1901 114.312 17.8047ZM115.945 12.6172C115.945 13.1849 115.794 13.6901 115.492 14.1328C115.195 14.5755 114.784 14.9245 114.258 15.1797C113.732 15.4297 113.133 15.5547 112.461 15.5547C111.784 15.5547 111.18 15.4297 110.648 15.1797C110.122 14.9245 109.708 14.5755 109.406 14.1328C109.109 13.6901 108.961 13.1849 108.961 12.6172C108.961 11.9401 109.109 11.3698 109.406 10.9062C109.708 10.4375 110.122 10.0807 110.648 9.83594C111.174 9.59115 111.776 9.46875 112.453 9.46875C113.13 9.46875 113.732 9.59115 114.258 9.83594C114.784 10.0807 115.195 10.4375 115.492 10.9062C115.794 11.3698 115.945 11.9401 115.945 12.6172ZM114.062 12.6797C114.062 12.3411 113.995 12.0443 113.859 11.7891C113.729 11.5286 113.544 11.3255 113.305 11.1797C113.065 11.0339 112.781 10.9609 112.453 10.9609C112.125 10.9609 111.841 11.0312 111.602 11.1719C111.362 11.3125 111.177 11.5104 111.047 11.7656C110.917 12.0208 110.852 12.3255 110.852 12.6797C110.852 13.0286 110.917 13.3333 111.047 13.5938C111.177 13.849 111.362 14.0495 111.602 14.1953C111.846 14.3411 112.133 14.4141 112.461 14.4141C112.789 14.4141 113.073 14.3411 113.312 14.1953C113.552 14.0495 113.737 13.849 113.867 13.5938C113.997 13.3333 114.062 13.0286 114.062 12.6797Z" fill="white"/>
</svg>
