<svg width="32" height="32" viewBox="0 0 32 32" fill="none" xmlns="http://www.w3.org/2000/svg">
<rect width="32" height="32" rx="4" fill="#128C7E"/>
<g clip-path="url(#clip0_2434_774)">
<path d="M22.39 9.58675C20.68 7.93375 18.43 7 16.0338 7C9.15625 7 4.83775 14.4512 8.272 20.3785L7 25L11.7513 23.761C13.8212 24.8792 15.517 24.7803 16.0382 24.8463C24.013 24.8463 27.9827 15.1982 22.3787 9.616L22.39 9.58675Z" fill="#ECEFF1"/>
<path d="M16.0504 23.3132L16.0459 23.3124H16.0339C13.6474 23.3124 12.1227 22.1822 11.9727 22.1169L9.16016 22.8482L9.91391 20.1144L9.73466 19.8332C8.99216 18.6512 8.59766 17.2899 8.59766 15.8882C8.59766 9.29341 16.6564 5.99566 21.3199 10.6569C25.9722 15.2694 22.7059 23.3132 16.0504 23.3132Z" fill="#4AC959"/>
<path d="M20.1304 17.7301L20.1236 17.7864C19.8979 17.6739 18.7984 17.1361 18.5936 17.0619C18.1339 16.8916 18.2636 17.0349 17.3809 18.0459C17.2496 18.1921 17.1191 18.2034 16.8964 18.1021C16.6714 17.9896 15.9491 17.7534 15.0941 16.9884C14.4281 16.3921 13.9811 15.6609 13.8491 15.4359C13.6294 15.0564 14.0891 15.0024 14.5076 14.2104C14.5826 14.0529 14.5444 13.9291 14.4889 13.8174C14.4326 13.7049 13.9849 12.6024 13.7974 12.1629C13.6174 11.7249 13.4321 11.7804 13.2934 11.7804C12.8614 11.7429 12.5456 11.7489 12.2674 12.0384C11.0569 13.3689 11.3621 14.7414 12.3979 16.2009C14.4334 18.8649 15.5179 19.3554 17.5009 20.0364C18.0364 20.2066 18.5246 20.1826 18.9109 20.1271C19.3414 20.0589 20.2361 19.5864 20.4229 19.0576C20.6141 18.5289 20.6141 18.0901 20.5579 17.9889C20.5024 17.8876 20.3554 17.8314 20.1304 17.7301Z" fill="#FAFAFA"/>
</g>
<defs>
<clipPath id="clip0_2434_774">
<rect width="18" height="18" fill="white" transform="translate(7 7)"/>
</clipPath>
</defs>
</svg>
